<?xml version="1.0" encoding="UTF-8" standalone="no"?>
<!-- Created with Inkscape (http://www.inkscape.org/) -->

<svg
   xmlns:dc="http://purl.org/dc/elements/1.1/"
   xmlns:cc="http://creativecommons.org/ns#"
   xmlns:rdf="http://www.w3.org/1999/02/22-rdf-syntax-ns#"
   xmlns:svg="http://www.w3.org/2000/svg"
   xmlns="http://www.w3.org/2000/svg"
   xmlns:sodipodi="http://sodipodi.sourceforge.net/DTD/sodipodi-0.dtd"
   xmlns:inkscape="http://www.inkscape.org/namespaces/inkscape"
   width="65.779648mm"
   height="12.433751mm"
   viewBox="0 0 233.07749 44.056598"
   id="svg7219"
   version="1.1"
   inkscape:version="0.91 r13725"
   sodipodi:docname="logo-ashique.svg">
  <defs
     id="defs7221" />
  <sodipodi:namedview
     id="base"
     pagecolor="#ffffff"
     bordercolor="#666666"
     borderopacity="1.0"
     inkscape:pageopacity="0.0"
     inkscape:pageshadow="2"
     inkscape:zoom="2.7125"
     inkscape:cx="171.80411"
     inkscape:cy="33.02192"
     inkscape:document-units="px"
     inkscape:current-layer="layer1"
     showgrid="false"
     inkscape:window-width="1366"
     inkscape:window-height="705"
     inkscape:window-x="-8"
     inkscape:window-y="-8"
     inkscape:window-maximized="1"
     showguides="true"
     inkscape:guide-bbox="true"
     fit-margin-top="0"
     fit-margin-left="0"
     fit-margin-right="0"
     fit-margin-bottom="0">
    <sodipodi:guide
       position="245.2344,108.12908"
       orientation="0,1"
       id="guide8104" />
  </sodipodi:namedview>
  <metadata
     id="metadata7224">
    <rdf:RDF>
      <cc:Work
         rdf:about="">
        <dc:format>image/svg+xml</dc:format>
        <dc:type
           rdf:resource="http://purl.org/dc/dcmitype/StillImage" />
        <dc:title></dc:title>
      </cc:Work>
    </rdf:RDF>
  </metadata>
  <g
     inkscape:label="Layer 1"
     inkscape:groupmode="layer"
     id="layer1"
     transform="translate(411.02977,-1006.9472)">
    <path
       style="color:#000000;font-style:normal;font-variant:normal;font-weight:normal;font-stretch:normal;font-size:23.29750824px;line-height:354.99999523%;font-family:Gilroy-Heavy;-inkscape-font-specification:Gilroy-Heavy;text-indent:0;text-align:start;text-decoration:none;text-decoration-line:none;text-decoration-style:solid;text-decoration-color:#000000;letter-spacing:0.61239165px;word-spacing:0px;text-transform:none;direction:ltr;block-progression:tb;writing-mode:lr-tb;baseline-shift:baseline;text-anchor:start;white-space:normal;clip-rule:nonzero;display:inline;overflow:visible;visibility:visible;opacity:1;isolation:auto;mix-blend-mode:normal;color-interpolation:sRGB;color-interpolation-filters:linearRGB;solid-color:#000000;solid-opacity:1;fill:#7510ff;fill-opacity:0.94117647;fill-rule:nonzero;stroke:none;stroke-width:1px;stroke-linecap:butt;stroke-linejoin:miter;stroke-miterlimit:4;stroke-dasharray:none;stroke-dashoffset:0;stroke-opacity:1;color-rendering:auto;image-rendering:auto;shape-rendering:auto;text-rendering:auto;enable-background:accumulate"
       d="m -377.68945,1006.9629 c -7.65476,0.2895 -15.68298,4.6126 -22.03321,10.1992 -3.6287,3.1923 -6.70343,6.8428 -8.75,10.6426 -2.04657,3.7998 -3.12121,7.8304 -2.25586,11.6797 0.86536,3.8493 3.83234,7.1605 8.55664,9.0976 4.72432,1.9372 11.2385,2.7625 20.13672,2.293 l -0.26367,-4.9844 c -8.44921,0.4458 -14.31883,-0.4263 -17.98047,-1.9277 -3.66163,-1.5014 -5.08304,-3.3701 -5.57812,-5.5723 -0.49508,-2.2022 0.0968,-5.0948 1.7793,-8.2187 1.68252,-3.1239 4.39836,-6.3971 7.65234,-9.2598 6.50796,-5.7253 15.19537,-9.6214 21.38086,-8.8633 3.09274,0.3791 5.57741,1.6923 7.56054,4.627 1.98314,2.9346 3.39522,7.6778 3.46094,14.7754 0.008,0.9137 -0.50064,2.1255 -1.55468,3.3242 -1.05406,1.1987 -2.58964,2.3117 -4.08399,3.0058 -1.49435,0.6944 -2.95609,0.9016 -3.57617,0.793 -0.31004,-0.054 -0.37447,-0.1231 -0.40625,-0.1562 -0.0318,-0.033 -0.12127,-0.1014 -0.16797,-0.5489 l -0.33984,0.035 -4.64258,-14.5742 -5.45313,0 -5.19531,16.3086 5.00977,0 0.55859,-2.0977 4.70703,0 0.55859,2.0977 0.10157,0 c 0.25693,0.8385 0.66772,1.6167 1.25976,2.2343 0.87943,0.9176 2.03452,1.4221 3.14844,1.6172 2.22785,0.3903 4.4269,-0.1995 6.54102,-1.1816 2.11411,-0.9822 4.13618,-2.4233 5.73047,-4.2363 1.59426,-1.8131 2.82089,-4.0726 2.79687,-6.6661 -0.0716,-7.7301 -1.5739,-13.4641 -4.31836,-17.5253 -2.74446,-4.0613 -6.79871,-6.2614 -11.08789,-6.7871 -1.0723,-0.1315 -2.15842,-0.1723 -3.25195,-0.1309 z m -3.83203,21.8418 1.35156,5.0098 -2.70313,0 1.35157,-5.0098 z"
       id="path8203"
       inkscape:connector-curvature="0" />
    <path
       sodipodi:type="inkscape:offset"
       inkscape:radius="0"
       inkscape:original="M -298.99805 1020.2402 C -299.69318 1020.2402 -300.29552 1020.4967 -300.80859 1021.0098 C -301.30512 1021.5063 -301.55469 1022.0949 -301.55469 1022.7734 C -301.55469 1023.452 -301.30512 1024.0475 -300.80859 1024.5605 C -300.29552 1025.0571 -299.69318 1025.3047 -298.99805 1025.3047 C -298.31946 1025.3047 -297.7309 1025.0571 -297.23438 1024.5605 C -296.7213 1024.0475 -296.46484 1023.452 -296.46484 1022.7734 C -296.46484 1022.0949 -296.7213 1021.5063 -297.23438 1021.0098 C -297.7309 1020.4967 -298.31946 1020.2402 -298.99805 1020.2402 z M -180.48438 1020.2402 C -181.17951 1020.2402 -181.7838 1020.4967 -182.29688 1021.0098 C -182.7934 1021.5063 -183.04102 1022.0949 -183.04102 1022.7734 C -183.04102 1023.452 -182.7934 1024.0475 -182.29688 1024.5605 C -181.7838 1025.0571 -181.17951 1025.3047 -180.48438 1025.3047 C -179.80579 1025.3047 -179.21918 1025.0571 -178.72266 1024.5605 C -178.20958 1024.0475 -177.95312 1023.452 -177.95312 1022.7734 C -177.95312 1022.0949 -178.20958 1021.5063 -178.72266 1021.0098 C -179.21918 1020.4967 -179.80579 1020.2402 -180.48438 1020.2402 z M -341.49414 1021.2832 L -347.0293 1038.6621 L -341.69141 1038.6621 L -341.0957 1036.4277 L -336.08203 1036.4277 L -335.48633 1038.6621 L -330.14844 1038.6621 L -335.68359 1021.2832 L -341.49414 1021.2832 z M -316.21484 1021.2832 L -316.21484 1038.6621 L -311.62109 1038.6621 L -311.62109 1032.2812 C -311.62109 1031.6689 -311.48058 1031.1894 -311.19922 1030.8418 C -310.9013 1030.4942 -310.47977 1030.3203 -309.93359 1030.3203 C -308.90744 1030.3203 -308.39453 1030.8735 -308.39453 1031.9824 L -308.39453 1038.6621 L -303.80078 1038.6621 L -303.80078 1031.4863 C -303.80078 1029.6326 -304.21543 1028.2433 -305.04297 1027.3164 C -305.85396 1026.373 -306.93775 1025.9004 -308.29492 1025.9004 C -309.7514 1025.9004 -310.85976 1026.4221 -311.62109 1027.4648 L -311.62109 1021.2832 L -316.21484 1021.2832 z M -243.14844 1021.2832 L -243.14844 1038.6621 L -235.94922 1038.6621 C -233.54935 1038.6621 -231.54684 1037.8348 -229.94141 1036.1797 C -228.31942 1034.5081 -227.50781 1032.4387 -227.50781 1029.9727 C -227.50781 1027.5066 -228.31942 1025.4461 -229.94141 1023.791 C -231.54684 1022.1194 -233.54935 1021.2832 -235.94922 1021.2832 L -243.14844 1021.2832 z M -323.87695 1025.9004 C -325.23412 1025.9004 -326.43386 1026.2728 -327.47656 1027.0176 C -328.50271 1027.7624 -329.01562 1028.8147 -329.01562 1030.1719 C -329.01563 1031.016 -328.81026 1031.7185 -328.39648 1032.2812 C -327.98271 1032.844 -327.48553 1033.2498 -326.90625 1033.498 C -326.31042 1033.7298 -325.72186 1033.9194 -325.14258 1034.0684 C -324.5633 1034.2008 -324.06807 1034.3344 -323.6543 1034.4668 C -323.24053 1034.5992 -323.0332 1034.7712 -323.0332 1034.9863 C -323.0332 1035.3504 -323.31422 1035.5332 -323.87695 1035.5332 C -324.7376 1035.5332 -325.32616 1035.1117 -325.64062 1034.2676 L -329.63672 1036.0547 C -328.75952 1038.0242 -326.82383 1039.0098 -323.82812 1039.0098 C -323.18264 1039.0098 -322.56067 1038.9341 -321.96484 1038.7852 C -321.35246 1038.6527 -320.75701 1038.4385 -320.17773 1038.1406 C -319.59845 1037.8427 -319.13468 1037.3947 -318.78711 1036.7988 C -318.42299 1036.203 -318.24219 1035.5093 -318.24219 1034.7148 C -318.24219 1033.9535 -318.39842 1033.307 -318.71289 1032.7773 C -319.01081 1032.2312 -319.39205 1031.8342 -319.85547 1031.5859 C -320.31889 1031.3377 -320.81608 1031.1304 -321.3457 1030.9648 C -321.87533 1030.7993 -322.37056 1030.6922 -322.83398 1030.6426 C -323.29741 1030.5764 -323.68749 1030.485 -324.00195 1030.3691 C -324.29987 1030.2533 -324.44727 1030.097 -324.44727 1029.8984 C -324.44727 1029.5509 -324.19081 1029.377 -323.67773 1029.377 C -323.0488 1029.377 -322.58698 1029.7248 -322.28906 1030.4199 L -318.49023 1029.0547 C -319.36743 1026.9527 -321.16261 1025.9004 -323.87695 1025.9004 z M -288.96875 1025.9004 C -290.64039 1025.9004 -292.0052 1026.5224 -293.06445 1027.7637 C -294.12371 1029.005 -294.6543 1030.5683 -294.6543 1032.4551 C -294.6543 1034.3419 -294.12371 1035.9052 -293.06445 1037.1465 C -292.0052 1038.3878 -290.64039 1039.0098 -288.96875 1039.0098 C -287.54538 1039.0098 -286.43702 1038.5214 -285.64258 1037.5449 L -285.64258 1043.627 L -281.04883 1043.627 L -281.04883 1026.248 L -285.64258 1026.248 L -285.64258 1027.3652 C -286.43702 1026.3887 -287.54538 1025.9004 -288.96875 1025.9004 z M -257.50586 1025.9004 C -259.40921 1025.9004 -260.99018 1026.5292 -262.24805 1027.7871 C -263.48936 1029.045 -264.10938 1030.6171 -264.10938 1032.5039 C -264.10937 1034.3742 -263.47168 1035.9306 -262.19727 1037.1719 C -260.9063 1038.3966 -259.20249 1039.0098 -257.08398 1039.0098 C -254.81652 1039.0098 -253.06163 1038.3387 -251.82031 1036.998 L -254.82422 1034.4668 C -255.4697 1034.9964 -256.17421 1035.2598 -256.93555 1035.2598 C -258.22651 1035.2598 -259.06958 1034.8471 -259.4668 1034.0195 L -251.22461 1034.0195 C -251.0922 1033.4899 -251.02539 1032.9524 -251.02539 1032.4062 C -251.02539 1030.536 -251.63852 1028.9884 -252.86328 1027.7637 C -254.07149 1026.5224 -255.61906 1025.9004 -257.50586 1025.9004 z M -219.18164 1025.9004 C -221.08499 1025.9004 -222.66596 1026.5292 -223.92383 1027.7871 C -225.16514 1029.045 -225.78516 1030.6171 -225.78516 1032.5039 C -225.78516 1034.3742 -225.14746 1035.9306 -223.87305 1037.1719 C -222.58208 1038.3966 -220.87827 1039.0098 -218.75977 1039.0098 C -216.4923 1039.0098 -214.73741 1038.3387 -213.49609 1036.998 L -216.5 1034.4668 C -217.14548 1034.9964 -217.84999 1035.2598 -218.61133 1035.2598 C -219.90229 1035.2598 -220.74536 1034.8471 -221.14258 1034.0195 L -212.90039 1034.0195 C -212.76798 1033.4899 -212.70117 1032.9524 -212.70117 1032.4062 C -212.70117 1030.536 -213.3143 1028.9884 -214.53906 1027.7637 C -215.74727 1026.5224 -217.29484 1025.9004 -219.18164 1025.9004 z M -206.14062 1025.9004 C -207.49779 1025.9004 -208.69753 1026.2728 -209.74023 1027.0176 C -210.76639 1027.7624 -211.2793 1028.8147 -211.2793 1030.1719 C -211.2793 1031.016 -211.07197 1031.7185 -210.6582 1032.2812 C -210.24443 1032.844 -209.7492 1033.2498 -209.16992 1033.498 C -208.57409 1033.7298 -207.98553 1033.9194 -207.40625 1034.0684 C -206.82697 1034.2008 -206.32979 1034.3344 -205.91602 1034.4668 C -205.50224 1034.5992 -205.29688 1034.7712 -205.29688 1034.9863 C -205.29687 1035.3504 -205.5779 1035.5332 -206.14062 1035.5332 C -207.00127 1035.5332 -207.58788 1035.1117 -207.90234 1034.2676 L -211.90039 1036.0547 C -211.0232 1038.0242 -209.08555 1039.0098 -206.08984 1039.0098 C -205.44436 1039.0098 -204.82435 1038.9341 -204.22852 1038.7852 C -203.61613 1038.6527 -203.02069 1038.4385 -202.44141 1038.1406 C -201.86213 1037.8427 -201.39835 1037.3947 -201.05078 1036.7988 C -200.68666 1036.203 -200.50391 1035.5093 -200.50391 1034.7148 C -200.50391 1033.9535 -200.6621 1033.307 -200.97656 1032.7773 C -201.27448 1032.2312 -201.65572 1031.8342 -202.11914 1031.5859 C -202.58256 1031.3377 -203.07779 1031.1304 -203.60742 1030.9648 C -204.13705 1030.7993 -204.63423 1030.6922 -205.09766 1030.6426 C -205.56108 1030.5764 -205.94921 1030.485 -206.26367 1030.3691 C -206.56159 1030.2533 -206.71094 1030.097 -206.71094 1029.8984 C -206.71094 1029.5509 -206.45448 1029.377 -205.94141 1029.377 C -205.31247 1029.377 -204.8487 1029.7248 -204.55078 1030.4199 L -200.75391 1029.0547 C -201.6311 1026.9527 -203.42629 1025.9004 -206.14062 1025.9004 z M -193.33789 1025.9004 C -195.00953 1025.9004 -196.37629 1026.5224 -197.43555 1027.7637 C -198.4948 1029.005 -199.02344 1030.5683 -199.02344 1032.4551 C -199.02344 1034.3419 -198.4948 1035.9052 -197.43555 1037.1465 C -196.37629 1038.3878 -195.00953 1039.0098 -193.33789 1039.0098 C -191.91452 1039.0098 -190.80616 1038.5214 -190.01172 1037.5449 L -190.01172 1038.6621 L -185.41797 1038.6621 L -185.41797 1026.248 L -190.01172 1026.248 L -190.01172 1027.3652 C -190.80616 1026.3887 -191.91452 1025.9004 -193.33789 1025.9004 z M -237.93359 1026.0996 L -235.94922 1026.0996 C -234.93962 1026.0996 -234.11033 1026.4632 -233.46484 1027.1914 C -232.80281 1027.9031 -232.47266 1028.8306 -232.47266 1029.9727 C -232.47266 1031.1147 -232.80281 1032.0491 -233.46484 1032.7773 C -234.11033 1033.489 -234.93962 1033.8457 -235.94922 1033.8457 L -237.93359 1033.8457 L -237.93359 1026.0996 z M -301.30664 1026.248 L -301.30664 1038.6621 L -296.71289 1038.6621 L -296.71289 1026.248 L -301.30664 1026.248 z M -278.54688 1026.248 L -278.54688 1033.4238 C -278.54688 1035.2775 -278.14107 1036.6757 -277.33008 1037.6191 C -276.50254 1038.546 -275.41186 1039.0098 -274.05469 1039.0098 C -272.59821 1039.0098 -271.4879 1038.488 -270.72656 1037.4453 L -270.72656 1038.6621 L -266.13477 1038.6621 L -266.13477 1026.248 L -270.72656 1026.248 L -270.72656 1032.6289 C -270.72656 1033.2413 -270.87591 1033.7208 -271.17383 1034.0684 C -271.45519 1034.4159 -271.86984 1034.5898 -272.41602 1034.5898 C -273.44217 1034.5898 -273.95508 1034.0347 -273.95508 1032.9258 L -273.95508 1026.248 L -278.54688 1026.248 z M -182.79297 1026.248 L -182.79297 1038.6621 L -178.20117 1038.6621 L -178.20117 1026.248 L -182.79297 1026.248 z M -338.58789 1027.1172 L -337.14844 1032.4551 L -340.0293 1032.4551 L -338.58789 1027.1172 z M -257.38281 1029.5742 C -256.32356 1029.5742 -255.65246 1030.0714 -255.37109 1031.0645 L -259.54102 1031.0645 C -259.1769 1030.0714 -258.45862 1029.5742 -257.38281 1029.5742 z M -219.05664 1029.5742 C -217.99739 1029.5742 -217.32824 1030.0714 -217.04688 1031.0645 L -221.2168 1031.0645 C -220.85268 1030.0714 -220.13245 1029.5742 -219.05664 1029.5742 z M -287.85156 1030.1211 C -287.18953 1030.1211 -286.65894 1030.3441 -286.26172 1030.791 C -285.84795 1031.2379 -285.64258 1031.793 -285.64258 1032.4551 C -285.64258 1033.1171 -285.84795 1033.6723 -286.26172 1034.1191 C -286.65894 1034.566 -287.18953 1034.7891 -287.85156 1034.7891 C -288.5136 1034.7891 -289.05107 1034.566 -289.46484 1034.1191 C -289.86206 1033.6723 -290.06055 1033.1171 -290.06055 1032.4551 C -290.06055 1031.793 -289.86206 1031.2379 -289.46484 1030.791 C -289.05107 1030.3441 -288.5136 1030.1211 -287.85156 1030.1211 z M -192.2207 1030.1211 C -191.55867 1030.1211 -191.03003 1030.3441 -190.63281 1030.791 C -190.21904 1031.2379 -190.01172 1031.793 -190.01172 1032.4551 C -190.01172 1033.1171 -190.21904 1033.6723 -190.63281 1034.1191 C -191.03003 1034.566 -191.55867 1034.7891 -192.2207 1034.7891 C -192.88274 1034.7891 -193.42217 1034.566 -193.83594 1034.1191 C -194.23316 1033.6723 -194.43164 1033.1171 -194.43164 1032.4551 C -194.43164 1031.793 -194.23316 1031.2379 -193.83594 1030.791 C -193.42217 1030.3441 -192.88274 1030.1211 -192.2207 1030.1211 z "
       style="color:#000000;font-style:normal;font-variant:normal;font-weight:normal;font-stretch:normal;font-size:24.82626343px;line-height:354.99999523%;font-family:Gilroy-Heavy;-inkscape-font-specification:Gilroy-Heavy;text-indent:0;text-align:start;text-decoration:none;text-decoration-line:none;text-decoration-style:solid;text-decoration-color:#000000;letter-spacing:0.65257597px;word-spacing:0px;text-transform:none;direction:ltr;block-progression:tb;writing-mode:lr-tb;baseline-shift:baseline;text-anchor:start;white-space:normal;clip-rule:nonzero;display:inline;overflow:visible;visibility:visible;opacity:1;isolation:auto;mix-blend-mode:normal;color-interpolation:sRGB;color-interpolation-filters:linearRGB;solid-color:#000000;solid-opacity:1;fill:#141c3a;fill-opacity:1;fill-rule:nonzero;stroke:none;stroke-width:1px;stroke-linecap:butt;stroke-linejoin:miter;stroke-miterlimit:4;stroke-dasharray:none;stroke-dashoffset:0;stroke-opacity:1;color-rendering:auto;image-rendering:auto;shape-rendering:auto;text-rendering:auto;enable-background:accumulate"
       id="path8225"
       d="m -298.99805,1020.2402 c -0.69513,0 -1.29747,0.2565 -1.81054,0.7696 -0.49653,0.4965 -0.7461,1.0851 -0.7461,1.7636 0,0.6786 0.24957,1.2741 0.7461,1.7871 0.51307,0.4966 1.11541,0.7442 1.81054,0.7442 0.67859,0 1.26715,-0.2476 1.76367,-0.7442 0.51308,-0.513 0.76954,-1.1085 0.76954,-1.7871 0,-0.6785 -0.25646,-1.2671 -0.76954,-1.7636 -0.49652,-0.5131 -1.08508,-0.7696 -1.76367,-0.7696 z m 118.51367,0 c -0.69513,0 -1.29942,0.2565 -1.8125,0.7696 -0.49652,0.4965 -0.74414,1.0851 -0.74414,1.7636 0,0.6786 0.24762,1.2741 0.74414,1.7871 0.51308,0.4966 1.11737,0.7442 1.8125,0.7442 0.67859,0 1.2652,-0.2476 1.76172,-0.7442 0.51308,-0.513 0.76954,-1.1085 0.76954,-1.7871 0,-0.6785 -0.25646,-1.2671 -0.76954,-1.7636 -0.49652,-0.5131 -1.08313,-0.7696 -1.76172,-0.7696 z m -161.00976,1.043 -5.53516,17.3789 5.33789,0 0.59571,-2.2344 5.01367,0 0.5957,2.2344 5.33789,0 -5.53515,-17.3789 -5.81055,0 z m 25.2793,0 0,17.3789 4.59375,0 0,-6.3809 c 0,-0.6123 0.14051,-1.0918 0.42187,-1.4394 0.29792,-0.3476 0.71945,-0.5215 1.26563,-0.5215 1.02615,0 1.53906,0.5532 1.53906,1.6621 l 0,6.6797 4.59375,0 0,-7.1758 c 0,-1.8537 -0.41465,-3.243 -1.24219,-4.1699 -0.81099,-0.9434 -1.89478,-1.416 -3.25195,-1.416 -1.45648,0 -2.56484,0.5217 -3.32617,1.5644 l 0,-6.1816 -4.59375,0 z m 73.0664,0 0,17.3789 7.19922,0 c 2.39987,0 4.40238,-0.8273 6.00781,-2.4824 1.62199,-1.6716 2.4336,-3.741 2.4336,-6.207 0,-2.4661 -0.81161,-4.5266 -2.4336,-6.1817 -1.60543,-1.6716 -3.60794,-2.5078 -6.00781,-2.5078 l -7.19922,0 z m -80.72851,4.6172 c -1.35717,0 -2.55691,0.3724 -3.59961,1.1172 -1.02615,0.7448 -1.53906,1.7971 -1.53906,3.1543 -10e-6,0.8441 0.20536,1.5466 0.61914,2.1093 0.41377,0.5628 0.91095,0.9686 1.49023,1.2168 0.59583,0.2318 1.18439,0.4214 1.76367,0.5704 0.57928,0.1324 1.07451,0.266 1.48828,0.3984 0.41377,0.1324 0.6211,0.3044 0.6211,0.5195 0,0.3641 -0.28102,0.5469 -0.84375,0.5469 -0.86065,0 -1.44921,-0.4215 -1.76367,-1.2656 l -3.9961,1.7871 c 0.8772,1.9695 2.81289,2.9551 5.8086,2.9551 0.64548,0 1.26745,-0.076 1.86328,-0.2246 0.61238,-0.1325 1.20783,-0.3467 1.78711,-0.6446 0.57928,-0.2979 1.04305,-0.7459 1.39062,-1.3418 0.36412,-0.5958 0.54492,-1.2895 0.54492,-2.084 0,-0.7613 -0.15623,-1.4078 -0.4707,-1.9375 -0.29792,-0.5461 -0.67916,-0.9431 -1.14258,-1.1914 -0.46342,-0.2482 -0.96061,-0.4555 -1.49023,-0.6211 -0.52963,-0.1655 -1.02486,-0.2726 -1.48828,-0.3222 -0.46343,-0.066 -0.85351,-0.1576 -1.16797,-0.2735 -0.29792,-0.1158 -0.44532,-0.2721 -0.44532,-0.4707 0,-0.3475 0.25646,-0.5214 0.76954,-0.5214 0.62893,0 1.09075,0.3478 1.38867,1.0429 l 3.79883,-1.3652 c -0.8772,-2.102 -2.67238,-3.1543 -5.38672,-3.1543 z m 34.9082,0 c -1.67164,0 -3.03645,0.622 -4.0957,1.8633 -1.05926,1.2413 -1.58985,2.8046 -1.58985,4.6914 0,1.8868 0.53059,3.4501 1.58985,4.6914 1.05925,1.2413 2.42406,1.8633 4.0957,1.8633 1.42337,0 2.53173,-0.4884 3.32617,-1.4649 l 0,6.0821 4.59375,0 0,-17.379 -4.59375,0 0,1.1172 c -0.79444,-0.9765 -1.9028,-1.4648 -3.32617,-1.4648 z m 31.46289,0 c -1.90335,0 -3.48432,0.6288 -4.74219,1.8867 -1.24131,1.2579 -1.86133,2.83 -1.86133,4.7168 10e-6,1.8703 0.6377,3.4267 1.91211,4.668 1.29097,1.2247 2.99478,1.8379 5.11329,1.8379 2.26746,0 4.02235,-0.6711 5.26367,-2.0118 l -3.00391,-2.5312 c -0.64548,0.5296 -1.34999,0.793 -2.11133,0.793 -1.29096,0 -2.13403,-0.4127 -2.53125,-1.2403 l 8.24219,0 c 0.13241,-0.5296 0.19922,-1.0671 0.19922,-1.6133 0,-1.8702 -0.61313,-3.4178 -1.83789,-4.6425 -1.20821,-1.2413 -2.75578,-1.8633 -4.64258,-1.8633 z m 38.32422,0 c -1.90335,0 -3.48432,0.6288 -4.74219,1.8867 -1.24131,1.2579 -1.86133,2.83 -1.86133,4.7168 0,1.8703 0.6377,3.4267 1.91211,4.668 1.29097,1.2247 2.99478,1.8379 5.11328,1.8379 2.26747,0 4.02236,-0.6711 5.26368,-2.0118 l -3.00391,-2.5312 c -0.64548,0.5296 -1.34999,0.793 -2.11133,0.793 -1.29096,0 -2.13403,-0.4127 -2.53125,-1.2403 l 8.24219,0 c 0.13241,-0.5296 0.19922,-1.0671 0.19922,-1.6133 0,-1.8702 -0.61313,-3.4178 -1.83789,-4.6425 -1.20821,-1.2413 -2.75578,-1.8633 -4.64258,-1.8633 z m 13.04102,0 c -1.35717,0 -2.55691,0.3724 -3.59961,1.1172 -1.02616,0.7448 -1.53907,1.7971 -1.53907,3.1543 0,0.8441 0.20733,1.5466 0.6211,2.1093 0.41377,0.5628 0.909,0.9686 1.48828,1.2168 0.59583,0.2318 1.18439,0.4214 1.76367,0.5704 0.57928,0.1324 1.07646,0.266 1.49023,0.3984 0.41378,0.1324 0.61914,0.3044 0.61914,0.5195 10e-6,0.3641 -0.28102,0.5469 -0.84374,0.5469 -0.86065,0 -1.44726,-0.4215 -1.76172,-1.2656 l -3.99805,1.7871 c 0.87719,1.9695 2.81484,2.9551 5.81055,2.9551 0.64548,0 1.26549,-0.076 1.86132,-0.2246 0.61239,-0.1325 1.20783,-0.3467 1.78711,-0.6446 0.57928,-0.2979 1.04306,-0.7459 1.39063,-1.3418 0.36412,-0.5958 0.54687,-1.2895 0.54687,-2.084 0,-0.7613 -0.15819,-1.4078 -0.47265,-1.9375 -0.29792,-0.5461 -0.67916,-0.9431 -1.14258,-1.1914 -0.46342,-0.2482 -0.95865,-0.4555 -1.48828,-0.6211 -0.52963,-0.1655 -1.02681,-0.2726 -1.49024,-0.3222 -0.46342,-0.066 -0.85155,-0.1576 -1.16601,-0.2735 -0.29792,-0.1158 -0.44727,-0.2721 -0.44727,-0.4707 0,-0.3475 0.25646,-0.5214 0.76953,-0.5214 0.62894,0 1.09271,0.3478 1.39063,1.0429 l 3.79687,-1.3652 c -0.87719,-2.102 -2.67238,-3.1543 -5.38671,-3.1543 z m 12.80273,0 c -1.67164,0 -3.0384,0.622 -4.09766,1.8633 -1.05925,1.2413 -1.58789,2.8046 -1.58789,4.6914 0,1.8868 0.52864,3.4501 1.58789,4.6914 1.05926,1.2413 2.42602,1.8633 4.09766,1.8633 1.42337,0 2.53173,-0.4884 3.32617,-1.4649 l 0,1.1172 4.59375,0 0,-12.4141 -4.59375,0 0,1.1172 c -0.79444,-0.9765 -1.9028,-1.4648 -3.32617,-1.4648 z m -44.5957,0.1992 1.98437,0 c 1.0096,0 1.83889,0.3636 2.48438,1.0918 0.66203,0.7117 0.99218,1.6392 0.99218,2.7813 0,1.142 -0.33015,2.0764 -0.99218,2.8046 -0.64549,0.7117 -1.47478,1.0684 -2.48438,1.0684 l -1.98437,0 0,-7.7461 z m -63.37305,0.1484 0,12.4141 4.59375,0 0,-12.4141 -4.59375,0 z m 22.75976,0 0,7.1758 c 0,1.8537 0.40581,3.2519 1.2168,4.1953 0.82754,0.9269 1.91822,1.3907 3.27539,1.3907 1.45648,0 2.56679,-0.5218 3.32813,-1.5645 l 0,1.2168 4.59179,0 0,-12.4141 -4.59179,0 0,6.3809 c 0,0.6124 -0.14935,1.0919 -0.44727,1.4395 -0.28136,0.3475 -0.69601,0.5214 -1.24219,0.5214 -1.02615,0 -1.53906,-0.5551 -1.53906,-1.664 l 0,-6.6778 -4.5918,0 z m 95.75391,0 0,12.4141 4.5918,0 0,-12.4141 -4.5918,0 z m -155.79492,0.8692 1.43945,5.3379 -2.88086,0 1.44141,-5.3379 z m 81.20508,2.457 c 1.05925,0 1.73035,0.4972 2.01172,1.4903 l -4.16993,0 c 0.36412,-0.9931 1.0824,-1.4903 2.15821,-1.4903 z m 38.32617,0 c 1.05925,0 1.7284,0.4972 2.00976,1.4903 l -4.16992,0 c 0.36412,-0.9931 1.08435,-1.4903 2.16016,-1.4903 z m -68.79492,0.5469 c 0.66203,0 1.19262,0.223 1.58984,0.6699 0.41377,0.4469 0.61914,1.002 0.61914,1.6641 0,0.662 -0.20537,1.2172 -0.61914,1.664 -0.39722,0.4469 -0.92781,0.67 -1.58984,0.67 -0.66204,0 -1.19951,-0.2231 -1.61328,-0.67 -0.39722,-0.4468 -0.59571,-1.002 -0.59571,-1.664 0,-0.6621 0.19849,-1.2172 0.59571,-1.6641 0.41377,-0.4469 0.95124,-0.6699 1.61328,-0.6699 z m 95.63086,0 c 0.66203,0 1.19067,0.223 1.58789,0.6699 0.41377,0.4469 0.62109,1.002 0.62109,1.6641 0,0.662 -0.20732,1.2172 -0.62109,1.664 -0.39722,0.4469 -0.92586,0.67 -1.58789,0.67 -0.66204,0 -1.20147,-0.2231 -1.61524,-0.67 -0.39722,-0.4468 -0.5957,-1.002 -0.5957,-1.664 0,-0.6621 0.19848,-1.2172 0.5957,-1.6641 0.41377,-0.4469 0.9532,-0.6699 1.61524,-0.6699 z"
       transform="matrix(0.88584238,0,0,0.88584238,-37.965372,117.80308)" />
  </g>
</svg>
