<?xml version="1.0" encoding="UTF-8" standalone="no"?>
<svg
   xmlns:osb="http://www.openswatchbook.org/uri/2009/osb"
   xmlns:dc="http://purl.org/dc/elements/1.1/"
   xmlns:cc="http://creativecommons.org/ns#"
   xmlns:rdf="http://www.w3.org/1999/02/22-rdf-syntax-ns#"
   xmlns:svg="http://www.w3.org/2000/svg"
   xmlns="http://www.w3.org/2000/svg"
   xmlns:xlink="http://www.w3.org/1999/xlink"
   xmlns:sodipodi="http://sodipodi.sourceforge.net/DTD/sodipodi-0.dtd"
   xmlns:inkscape="http://www.inkscape.org/namespaces/inkscape"
   version="1.1"
   width="217.00073"
   height="251.48169"
   xlink="http://www.w3.org/1999/xlink"
   style="overflow:hidden"
   id="svg2"
   inkscape:version="0.91 r13725"
   sodipodi:docname="myAvatar-final.svg">
  <metadata
     id="metadata186">
    <rdf:RDF>
      <cc:Work
         rdf:about="">
        <dc:format>image/svg+xml</dc:format>
        <dc:type
           rdf:resource="http://purl.org/dc/dcmitype/StillImage" />
        <dc:title></dc:title>
      </cc:Work>
    </rdf:RDF>
  </metadata>
  <sodipodi:namedview
     pagecolor="#ffffff"
     bordercolor="#666666"
     borderopacity="1"
     objecttolerance="10"
     gridtolerance="10"
     guidetolerance="10"
     inkscape:pageopacity="0"
     inkscape:pageshadow="2"
     inkscape:window-width="1366"
     inkscape:window-height="705"
     id="namedview184"
     showgrid="false"
     inkscape:zoom="1.6134733"
     inkscape:cx="162.62588"
     inkscape:cy="110.05588"
     inkscape:window-x="-8"
     inkscape:window-y="-8"
     inkscape:window-maximized="1"
     inkscape:current-layer="svg2"
     fit-margin-top="0"
     fit-margin-left="0"
     fit-margin-right="0"
     fit-margin-bottom="0" />
  <rect
     style="display:none;opacity:0.5;fill:#ecf0f1"
     y="192.74084"
     x="0.00036884521"
     height="45"
     width="600"
     id="SvgjsRect1036" />
  <text
     y="192.74084"
     x="300.00037"
     font-weight="400"
     font-size="0.84em"
     style="font-weight:400;font-size:30.23999977px;font-family:Roboto, 'Helvetica Neue', Helvetica, Arial, sans-serif;text-anchor:middle;display:none;fill:#000000"
     id="SvgjsText1037">
    <tspan
       style="font-weight:400;font-size:25.40159798px;font-family:Roboto, 'Helvetica Neue', Helvetica, Arial, sans-serif;text-anchor:middle"
       x="300.00037"
       dy="0"
       id="SvgjsTspan1038">Created on AvatarMaker.com</tspan>
  </text>
  <defs
     id="SvgjsDefs1001">
    <linearGradient
       id="linearGradient7123"
       osb:paint="solid">
      <stop
         style="stop-color:#759bff;stop-opacity:1;"
         offset="0"
         id="stop7125" />
    </linearGradient>
    <radialGradient
       id="SvgjsRadialGradient2886"
       cx="100"
       cy="114"
       r="41"
       gradientUnits="userSpaceOnUse"
       class="svga-on-canvas-facehighlight-gradient-single-0">
      <stop
         id="SvgjsStop2887"
         stop-opacity="0.5"
         stop-color="#ffe4d6"
         offset="0" />
      <stop
         id="SvgjsStop2888"
         stop-opacity="0"
         stop-color="#f0c7b1"
         offset="0.9" />
    </radialGradient>
    <radialGradient
       id="SvgjsRadialGradient2890"
       cx="100"
       cy="54"
       r="37"
       gradientUnits="userSpaceOnUse"
       class="svga-on-canvas-facehighlight-gradient-single-1">
      <stop
         id="SvgjsStop2891"
         stop-opacity="0.5"
         stop-color="#ffe4d6"
         offset="0" />
      <stop
         id="SvgjsStop2892"
         stop-opacity="0"
         stop-color="#f0c7b1"
         offset="0.9" />
    </radialGradient>
    <radialGradient
       id="SvgjsRadialGradient4704"
       cx="-568.659"
       cy="-521.04199"
       r="59.750999"
       gradientTransform="matrix(0.096,-0.0248,0.0245,0.0961,141.2814,119.9893)"
       gradientUnits="userSpaceOnUse"
       class="svga-on-canvas-eyesiris-gradient-left-1">
      <stop
         id="SvgjsStop4705"
         stop-opacity="1"
         stop-color="#ffffff"
         offset="0" />
      <stop
         id="SvgjsStop4706"
         stop-opacity="0"
         stop-color="#ffffff"
         offset="1" />
    </radialGradient>
    <radialGradient
       id="SvgjsRadialGradient4708"
       cx="-582.83801"
       cy="-519.099"
       r="59.744999"
       gradientTransform="matrix(0.0991,8.856319e-4,-0.0011,0.0991,131.1134,135.9855)"
       gradientUnits="userSpaceOnUse"
       class="svga-on-canvas-eyesiris-gradient-left-2">
      <stop
         id="SvgjsStop4709"
         stop-opacity="1"
         stop-color="#ffffff"
         offset="0" />
      <stop
         id="SvgjsStop4710"
         stop-opacity="0"
         stop-color="#ffffff"
         offset="1" />
    </radialGradient>
    <linearGradient
       id="SvgjsLinearGradient4714"
       x1="122.67"
       y1="88.267998"
       x2="123.606"
       y2="87.152"
       gradientTransform="translate(-52,0)"
       gradientUnits="userSpaceOnUse"
       class="svga-on-canvas-eyesiris-gradient-left-5">
      <stop
         id="SvgjsStop4715"
         stop-opacity="1"
         stop-color="#ffffff"
         offset="0" />
      <stop
         id="SvgjsStop4716"
         stop-opacity="0"
         stop-color="#ffffff"
         offset="1" />
    </linearGradient>
    <linearGradient
       id="SvgjsLinearGradient4718"
       x1="127.212"
       y1="82.295998"
       x2="126.463"
       y2="83.189003"
       gradientTransform="translate(-52,0)"
       gradientUnits="userSpaceOnUse"
       class="svga-on-canvas-eyesiris-gradient-left-6">
      <stop
         id="SvgjsStop4719"
         stop-opacity="1"
         stop-color="#ffffff"
         offset="0" />
      <stop
         id="SvgjsStop4720"
         stop-opacity="0"
         stop-color="#ffffff"
         offset="1" />
    </linearGradient>
    <linearGradient
       id="SvgjsLinearGradient4722"
       x1="129.636"
       y1="79.821999"
       x2="127.91"
       y2="81.878998"
       gradientTransform="translate(-52,0)"
       gradientUnits="userSpaceOnUse"
       class="svga-on-canvas-eyesiris-gradient-left-7">
      <stop
         id="SvgjsStop4723"
         stop-opacity="1"
         stop-color="#ffffff"
         offset="0" />
      <stop
         id="SvgjsStop4724"
         stop-opacity="0"
         stop-color="#ffffff"
         offset="1" />
    </linearGradient>
    <radialGradient
       id="SvgjsRadialGradient4727"
       cx="-568.65399"
       cy="-521.04199"
       r="59.751999"
       gradientTransform="matrix(0.096,-0.0248,0.0245,0.0961,193.2804,119.9894)"
       gradientUnits="userSpaceOnUse"
       class="svga-on-canvas-eyesiris-gradient-right-1">
      <stop
         id="SvgjsStop4728"
         stop-opacity="1"
         stop-color="#ffffff"
         offset="0" />
      <stop
         id="SvgjsStop4729"
         stop-opacity="0"
         stop-color="#ffffff"
         offset="1" />
    </radialGradient>
    <radialGradient
       id="SvgjsRadialGradient4731"
       cx="-582.83301"
       cy="-519.10199"
       r="59.747002"
       gradientTransform="matrix(0.0991,8.856319e-4,-0.0011,0.0991,183.1126,135.9856)"
       gradientUnits="userSpaceOnUse"
       class="svga-on-canvas-eyesiris-gradient-right-2">
      <stop
         id="SvgjsStop4732"
         stop-opacity="1"
         stop-color="#ffffff"
         offset="0" />
      <stop
         id="SvgjsStop4733"
         stop-opacity="0"
         stop-color="#ffffff"
         offset="1" />
    </radialGradient>
    <linearGradient
       id="SvgjsLinearGradient4737"
       x1="122.67"
       y1="88.267998"
       x2="123.606"
       y2="87.152"
       gradientUnits="userSpaceOnUse"
       class="svga-on-canvas-eyesiris-gradient-right-5">
      <stop
         id="SvgjsStop4738"
         stop-opacity="1"
         stop-color="#ffffff"
         offset="0" />
      <stop
         id="SvgjsStop4739"
         stop-opacity="0"
         stop-color="#ffffff"
         offset="1" />
    </linearGradient>
    <linearGradient
       id="SvgjsLinearGradient4741"
       x1="127.212"
       y1="82.295998"
       x2="126.463"
       y2="83.189003"
       gradientUnits="userSpaceOnUse"
       class="svga-on-canvas-eyesiris-gradient-right-6">
      <stop
         id="SvgjsStop4742"
         stop-opacity="1"
         stop-color="#ffffff"
         offset="0" />
      <stop
         id="SvgjsStop4743"
         stop-opacity="0"
         stop-color="#ffffff"
         offset="1" />
    </linearGradient>
    <linearGradient
       id="SvgjsLinearGradient4745"
       x1="129.636"
       y1="79.821999"
       x2="127.91"
       y2="81.878998"
       gradientUnits="userSpaceOnUse"
       class="svga-on-canvas-eyesiris-gradient-right-7">
      <stop
         id="SvgjsStop4746"
         stop-opacity="1"
         stop-color="#ffffff"
         offset="0" />
      <stop
         id="SvgjsStop4747"
         stop-opacity="0"
         stop-color="#ffffff"
         offset="1" />
    </linearGradient>
    <radialGradient
       id="SvgjsRadialGradient6101"
       cx="129.041"
       cy="83.945"
       r="15.117"
       gradientTransform="matrix(-0.9945,0.1042,0.1042,0.9945,192.8281,-12.4633)"
       gradientUnits="userSpaceOnUse"
       class="svga-on-canvas-eyesback-gradient-left-0">
      <stop
         id="SvgjsStop6102"
         stop-opacity="1"
         stop-color="#ffffff"
         offset="0" />
      <stop
         id="SvgjsStop6103"
         stop-opacity="1"
         stop-color="#fcfdfd"
         offset="0.315" />
      <stop
         id="SvgjsStop6104"
         stop-opacity="1"
         stop-color="#f4f7f8"
         offset="0.504" />
      <stop
         id="SvgjsStop6105"
         stop-opacity="1"
         stop-color="#e5ecef"
         offset="0.66" />
      <stop
         id="SvgjsStop6106"
         stop-opacity="1"
         stop-color="#d8e2e7"
         offset="0.76" />
    </radialGradient>
    <radialGradient
       id="SvgjsRadialGradient6108"
       cx="128.64301"
       cy="83.986"
       r="15.116"
       gradientTransform="matrix(0.9945,0.1042,-0.1042,0.9945,7.1738,-12.4633)"
       gradientUnits="userSpaceOnUse"
       class="svga-on-canvas-eyesback-gradient-right-0">
      <stop
         id="SvgjsStop6109"
         stop-opacity="1"
         stop-color="#ffffff"
         offset="0" />
      <stop
         id="SvgjsStop6110"
         stop-opacity="1"
         stop-color="#fcfdfd"
         offset="0.316" />
      <stop
         id="SvgjsStop6111"
         stop-opacity="1"
         stop-color="#f4f7f8"
         offset="0.505" />
      <stop
         id="SvgjsStop6112"
         stop-opacity="1"
         stop-color="#e5ecef"
         offset="0.661" />
      <stop
         id="SvgjsStop6113"
         stop-opacity="1"
         stop-color="#d8e2e7"
         offset="0.76" />
    </radialGradient>
    <radialGradient
       id="SvgjsRadialGradient6115"
       cx="129.041"
       cy="83.945"
       r="15.117"
       gradientTransform="matrix(-0.9945,0.1042,0.1042,0.9945,192.8281,-12.4633)"
       gradientUnits="userSpaceOnUse"
       class="svga-on-canvas-eyesfront-gradient-left-0">
      <stop
         id="SvgjsStop6116"
         stop-opacity="1"
         stop-color="#ffffff"
         offset="0" />
      <stop
         id="SvgjsStop6117"
         stop-opacity="1"
         stop-color="#fcfdfd"
         offset="0.316" />
      <stop
         id="SvgjsStop6118"
         stop-opacity="1"
         stop-color="#f4f7f8"
         offset="0.505" />
      <stop
         id="SvgjsStop6119"
         stop-opacity="1"
         stop-color="#e5ecef"
         offset="0.661" />
      <stop
         id="SvgjsStop6120"
         stop-opacity="1"
         stop-color="#d8e2e7"
         offset="0.76" />
    </radialGradient>
    <radialGradient
       id="SvgjsRadialGradient6124"
       cx="121.986"
       cy="82.496002"
       fx="133.239"
       fy="82.527"
       r="16.003"
       gradientTransform="matrix(0.9998,0.0208,0.0166,-0.7998,-45.3195,145.9395)"
       gradientUnits="userSpaceOnUse"
       class="svga-on-canvas-eyesfront-gradient-left-3">
      <stop
         id="SvgjsStop6125"
         stop-opacity="1"
         stop-color="#e1ac8f"
         offset="0" />
      <stop
         id="SvgjsStop6126"
         stop-opacity="0.3"
         stop-color="#e1ac8f"
         offset="0.7" />
      <stop
         id="SvgjsStop6127"
         stop-opacity="0"
         stop-color="#f0c7b1"
         offset="1" />
    </radialGradient>
    <radialGradient
       id="SvgjsRadialGradient6129"
       cx="68.931"
       cy="105.995"
       r="29.524"
       gradientTransform="matrix(1.0336,0,0,1.0336,-1.6796,1.3127)"
       gradientUnits="userSpaceOnUse"
       class="svga-on-canvas-eyesfront-gradient-left-4">
      <stop
         id="SvgjsStop6130"
         stop-opacity="0"
         stop-color="#000000"
         offset="0.95" />
      <stop
         id="SvgjsStop6131"
         stop-opacity="0.2"
         stop-color="#000000"
         offset="1" />
    </radialGradient>
    <radialGradient
       id="SvgjsRadialGradient6135"
       cx="128.64301"
       cy="83.986"
       r="15.116"
       gradientTransform="matrix(0.9945,0.1042,-0.1042,0.9945,7.1738,-12.4633)"
       gradientUnits="userSpaceOnUse"
       class="svga-on-canvas-eyesfront-gradient-right-0">
      <stop
         id="SvgjsStop6136"
         stop-opacity="1"
         stop-color="#ffffff"
         offset="0" />
      <stop
         id="SvgjsStop6137"
         stop-opacity="1"
         stop-color="#fcfdfd"
         offset="0.316" />
      <stop
         id="SvgjsStop6138"
         stop-opacity="1"
         stop-color="#f4f7f8"
         offset="0.505" />
      <stop
         id="SvgjsStop6139"
         stop-opacity="1"
         stop-color="#e5ecef"
         offset="0.661" />
      <stop
         id="SvgjsStop6140"
         stop-opacity="1"
         stop-color="#d8e2e7"
         offset="0.76" />
    </radialGradient>
    <radialGradient
       id="SvgjsRadialGradient6144"
       cx="121.587"
       cy="82.496002"
       fx="132.839"
       fy="82.527"
       r="16.003"
       gradientTransform="matrix(-0.9998,0.0208,-0.0166,-0.7998,244.5208,145.9478)"
       gradientUnits="userSpaceOnUse"
       class="svga-on-canvas-eyesfront-gradient-right-3">
      <stop
         id="SvgjsStop6145"
         stop-opacity="1"
         stop-color="#e1ac8f"
         offset="0" />
      <stop
         id="SvgjsStop6146"
         stop-opacity="0.3"
         stop-color="#e1ac8f"
         offset="0.7" />
      <stop
         id="SvgjsStop6147"
         stop-opacity="0"
         stop-color="#f0c7b1"
         offset="1" />
    </radialGradient>
    <radialGradient
       id="SvgjsRadialGradient6149"
       cx="69.316002"
       cy="105.995"
       r="29.524"
       gradientTransform="matrix(-1.0336,0,0,1.0336,201.6796,1.3127)"
       gradientUnits="userSpaceOnUse"
       class="svga-on-canvas-eyesfront-gradient-right-4">
      <stop
         id="SvgjsStop6150"
         stop-opacity="0"
         stop-color="#000000"
         offset="0.95" />
      <stop
         id="SvgjsStop6151"
         stop-opacity="0.2"
         stop-color="#000000"
         offset="1" />
    </radialGradient>
    <linearGradient
       id="SvgjsLinearGradient6315"
       x1="100"
       y1="170"
       x2="100"
       y2="122"
       gradientUnits="userSpaceOnUse"
       class="svga-on-canvas-chinshadow-gradient-single-0">
      <stop
         id="SvgjsStop6316"
         stop-opacity="0.8"
         stop-color="#e1ac8f"
         offset="0" />
      <stop
         id="SvgjsStop6317"
         stop-opacity="1"
         stop-color="#c27b55"
         offset="0.7" />
    </linearGradient>
    <linearGradient
       id="SvgjsLinearGradient6319"
       x1="100"
       y1="142"
       x2="100"
       y2="139"
       gradientUnits="userSpaceOnUse"
       class="svga-on-canvas-mouth-gradient-single-0">
      <stop
         id="SvgjsStop6320"
         stop-opacity="1"
         stop-color="#e8b9a0"
         offset="0.1" />
      <stop
         id="SvgjsStop6321"
         stop-opacity="1"
         stop-color="#e1ac8f"
         offset="1" />
    </linearGradient>
    <linearGradient
       inkscape:collect="always"
       xlink:href="#SvgjsLinearGradient6315"
       id="linearGradient5033"
       gradientUnits="userSpaceOnUse"
       x1="100"
       y1="170"
       x2="100"
       y2="122" />
    <linearGradient
       inkscape:collect="always"
       xlink:href="#SvgjsLinearGradient6319"
       id="linearGradient5035"
       gradientUnits="userSpaceOnUse"
       x1="100"
       y1="142"
       x2="100"
       y2="139" />
    <radialGradient
       inkscape:collect="always"
       xlink:href="#SvgjsRadialGradient6101"
       id="radialGradient5037"
       gradientUnits="userSpaceOnUse"
       gradientTransform="matrix(-0.9945,0.1042,0.1042,0.9945,192.8281,-12.4633)"
       cx="129.041"
       cy="83.945"
       r="15.117" />
    <radialGradient
       inkscape:collect="always"
       xlink:href="#SvgjsRadialGradient4704"
       id="radialGradient5039"
       gradientUnits="userSpaceOnUse"
       gradientTransform="matrix(0.096,-0.0248,0.0245,0.0961,141.2814,119.9893)"
       cx="-568.659"
       cy="-521.04199"
       r="59.750999" />
    <radialGradient
       inkscape:collect="always"
       xlink:href="#SvgjsRadialGradient4708"
       id="radialGradient5041"
       gradientUnits="userSpaceOnUse"
       gradientTransform="matrix(0.0991,8.856319e-4,-0.0011,0.0991,131.1134,135.9855)"
       cx="-582.83801"
       cy="-519.099"
       r="59.744999" />
    <linearGradient
       inkscape:collect="always"
       xlink:href="#SvgjsLinearGradient4714"
       id="linearGradient5043"
       gradientUnits="userSpaceOnUse"
       gradientTransform="translate(-52,0)"
       x1="122.67"
       y1="88.267998"
       x2="123.606"
       y2="87.152" />
    <linearGradient
       inkscape:collect="always"
       xlink:href="#SvgjsLinearGradient4718"
       id="linearGradient5045"
       gradientUnits="userSpaceOnUse"
       gradientTransform="translate(-52,0)"
       x1="127.212"
       y1="82.295998"
       x2="126.463"
       y2="83.189003" />
    <linearGradient
       inkscape:collect="always"
       xlink:href="#SvgjsLinearGradient4722"
       id="linearGradient5047"
       gradientUnits="userSpaceOnUse"
       gradientTransform="translate(-52,0)"
       x1="129.636"
       y1="79.821999"
       x2="127.91"
       y2="81.878998" />
    <radialGradient
       inkscape:collect="always"
       xlink:href="#SvgjsRadialGradient6124"
       id="radialGradient5049"
       gradientUnits="userSpaceOnUse"
       gradientTransform="matrix(0.9998,0.0208,0.0166,-0.7998,-45.3195,145.9395)"
       cx="121.986"
       cy="82.496002"
       fx="133.239"
       fy="82.527"
       r="16.003" />
    <radialGradient
       inkscape:collect="always"
       xlink:href="#SvgjsRadialGradient6129"
       id="radialGradient5051"
       gradientUnits="userSpaceOnUse"
       gradientTransform="matrix(1.0336,0,0,1.0336,-1.6796,1.3127)"
       cx="68.931"
       cy="105.995"
       r="29.524" />
    <radialGradient
       inkscape:collect="always"
       xlink:href="#SvgjsRadialGradient6108"
       id="radialGradient5053"
       gradientUnits="userSpaceOnUse"
       gradientTransform="matrix(0.9945,0.1042,-0.1042,0.9945,7.1738,-12.4633)"
       cx="128.64301"
       cy="83.986"
       r="15.116" />
    <radialGradient
       inkscape:collect="always"
       xlink:href="#SvgjsRadialGradient4727"
       id="radialGradient5055"
       gradientUnits="userSpaceOnUse"
       gradientTransform="matrix(0.096,-0.0248,0.0245,0.0961,193.2804,119.9894)"
       cx="-568.65399"
       cy="-521.04199"
       r="59.751999" />
    <radialGradient
       inkscape:collect="always"
       xlink:href="#SvgjsRadialGradient4731"
       id="radialGradient5057"
       gradientUnits="userSpaceOnUse"
       gradientTransform="matrix(0.0991,8.856319e-4,-0.0011,0.0991,183.1126,135.9856)"
       cx="-582.83301"
       cy="-519.10199"
       r="59.747002" />
    <linearGradient
       inkscape:collect="always"
       xlink:href="#SvgjsLinearGradient4737"
       id="linearGradient5059"
       gradientUnits="userSpaceOnUse"
       x1="122.67"
       y1="88.267998"
       x2="123.606"
       y2="87.152" />
    <linearGradient
       inkscape:collect="always"
       xlink:href="#SvgjsLinearGradient4741"
       id="linearGradient5061"
       gradientUnits="userSpaceOnUse"
       x1="127.212"
       y1="82.295998"
       x2="126.463"
       y2="83.189003" />
    <linearGradient
       inkscape:collect="always"
       xlink:href="#SvgjsLinearGradient4745"
       id="linearGradient5063"
       gradientUnits="userSpaceOnUse"
       x1="129.636"
       y1="79.821999"
       x2="127.91"
       y2="81.878998" />
    <radialGradient
       inkscape:collect="always"
       xlink:href="#SvgjsRadialGradient6144"
       id="radialGradient5065"
       gradientUnits="userSpaceOnUse"
       gradientTransform="matrix(-0.9998,0.0208,-0.0166,-0.7998,244.5208,145.9478)"
       cx="121.587"
       cy="82.496002"
       fx="132.839"
       fy="82.527"
       r="16.003" />
    <radialGradient
       inkscape:collect="always"
       xlink:href="#SvgjsRadialGradient6149"
       id="radialGradient5067"
       gradientUnits="userSpaceOnUse"
       gradientTransform="matrix(-1.0336,0,0,1.0336,201.6796,1.3127)"
       cx="69.316002"
       cy="105.995"
       r="29.524" />
    <radialGradient
       inkscape:collect="always"
       xlink:href="#SvgjsRadialGradient2886"
       id="radialGradient5069"
       gradientUnits="userSpaceOnUse"
       cx="100"
       cy="114"
       r="41" />
    <radialGradient
       inkscape:collect="always"
       xlink:href="#SvgjsRadialGradient2890"
       id="radialGradient5071"
       gradientUnits="userSpaceOnUse"
       cx="100"
       cy="54"
       r="37" />
  </defs>
  <g
     id="g5361"
     transform="matrix(0.92236816,0,0,0.92236816,-306.48764,21.446809)"
     style="fill:#7510ff;fill-opacity:1">
    <path
       d="M 519.40281,221.76582 A 108.49821,108.49765 0 0 1 366.83956,208.22516 108.49821,108.49765 0 0 1 379.83054,55.614896 108.49821,108.49765 0 0 1 532.48741,68.055909 108.49821,108.49765 0 0 1 520.5964,220.75582"
       sodipodi:open="true"
       sodipodi:end="0.86131126"
       sodipodi:start="0.87572244"
       sodipodi:ry="108.49765"
       sodipodi:rx="108.49821"
       sodipodi:cy="138.43893"
       sodipodi:cx="449.91599"
       sodipodi:type="arc"
       id="path4314"
       style="opacity:1;fill:#7510ff;fill-opacity:1;fill-rule:nonzero;stroke:#feb200;stroke-width:0;stroke-linecap:butt;stroke-miterlimit:4;stroke-dasharray:none;stroke-dashoffset:0;stroke-opacity:1" />
  </g>
  <path
     inkscape:connector-curvature="0"
     style="opacity:1;fill:#f0c7b1;stroke:none"
     d="m 79.824284,138.47587 c 0,0 4.293974,27.52301 4.154263,37.88555 -0.01088,0.87841 -0.580243,2.05974 -1.271863,2.63199 -3.866327,3.2008 -14.899308,12.73818 -20.376763,13.97424 -6.833955,1.54031 -25.262364,4.40431 -33.425045,6.69618 -1.796681,0.50375 -3.539653,1.36708 -5.175703,2.43743 a 100.07529,100.07478 0 0 0 8.144575,11.4053 100.07529,100.07478 0 0 0 52.113801,32.53149 l 24.736401,0 24.28243,0 a 100.07529,100.07478 0 0 0 39.58616,-20.0417 l 1.10072,-0.93137 a 100.07529,100.07478 0 0 0 19.74444,-23.23035 c -1.55324,-0.99393 -3.20069,-1.78964 -4.89287,-2.26448 -8.16367,-2.29188 -26.59209,-5.06219 -33.42504,-6.6025 -5.47747,-1.23606 -16.50864,-10.77344 -20.37497,-13.97424 -0.6936,-0.57225 -1.26158,-1.75358 -1.27546,-2.63199 -0.13772,-10.36157 4.15607,-37.88555 4.15607,-37.88555 l -28.90148,0 -28.899666,0 z"
     id="path4857" />
  <path
     style="opacity:1;fill:#e1ac8f;stroke:none"
     inkscape:connector-curvature="0"
     stroke-width="none"
     d="m 104.41054,210.59883 c 0,0 -5.027605,-1.53459 -7.018242,-2.26898 -10.353472,-3.82359 -43.989112,-6.30145 -43.989112,-6.30145 0,0 35.42711,1.35338 43.244982,2.65048 -0.453814,-4.54654 -2.989423,-19.07889 -2.989423,-19.07889 0,0 5.101923,16.03737 6.350405,20.0832 0.66784,2.16311 4.40139,4.91564 4.40139,4.91564 z m 10.70028,-1.27993 c -0.0882,0.0696 -0.18927,0.16022 -0.29925,0.2556 0.11197,-0.0811 0.21304,-0.16595 0.29925,-0.2556 z m -10.70028,1.27993 c 0,0 2.86656,2.85363 4.30726,2.88988 1.89253,0.0486 4.78386,-2.76494 6.09476,-3.91421 -1.25344,0.91274 -4.12098,1.32667 -5.26145,1.36959 -1.31784,0.0486 -5.14057,-0.34526 -5.14057,-0.34526 z m 20.82584,-7.17127 c -1.53087,0.23653 -4.3459,0.75251 -4.3459,0.75251 l 2.2661,-14.2014 c -0.6401,2.92898 -4.43311,15.46131 -8.04576,19.34023 1.89253,-1.54127 6.10169,-2.28043 8.24789,-2.57895 10.14241,-1.41538 10.13845,-1.41442 40.68659,-4.71155 0,0 -28.80522,-0.14783 -38.80892,1.39916 z"
     id="path4861" />
  <path
     style="opacity:1;fill:#1d282e"
     d="m 149.92317,188.74104 c -9.3874,16.99001 -64.275284,21.36178 -82.759127,0.58729 -6.803941,3.61916 -15.47708,5.48785 -24.29503,6.51242 -7.752495,0.8363 -14.853927,2.04412 -21.138806,3.88945 a 100.07529,100.07478 0 0 0 10.055972,14.5345 100.07529,100.07478 0 0 0 64.61081,34.91668 c 8.158061,0.017 16.300731,0.0329 23.594251,0.0342 a 100.07529,100.07478 0 0 0 52.51373,-22.46111 l 1.10072,-0.93137 a 100.07529,100.07478 0 0 0 21.66484,-26.40279 c -6.24442,-1.9336 -13.27523,-2.92173 -20.88839,-3.26972 -7.42207,-0.33904 -14.67463,-2.58369 -19.95702,-5.79003 -1.62797,-0.48474 -2.92833,-1.12454 -4.50195,-1.61955 z"
     id="path4871"
     inkscape:connector-curvature="0" />
  <path
     style="opacity:1;fill:#101a1f"
     inkscape:connector-curvature="0"
     stroke-width="none"
     d="m 148.44087,189.73852 c -6.26279,10.75383 -53.605072,23.27756 -80.300067,0.82097 -1.659663,0.58093 -6.625066,1.97256 -6.625066,1.97256 19.445006,21.84203 76.429413,21.98026 91.597323,-0.10647 -0.0668,-0.0215 -3.13026,-2.04074 -4.67219,-2.68706 z"
     id="path4875" />
  <g
     id="g5073"
     transform="matrix(0.92236816,0,0,0.92236816,-315.6343,-18.569826)">
    <g
       transform="matrix(1.0125881,0,0,1.012588,365.01454,49.176409)"
       id="g4851">
      <path
         style="opacity:1;fill:#2a232b"
         inkscape:connector-curvature="0"
         stroke-width="none"
         d="m 100.5,100.5 -1,0 0,-1 1,0 0,1 z"
         id="path4853" />
    </g>
    <g
       id="g4865"
       transform="matrix(1.2097125,0,0,1.012588,339.72408,49.17642)">
      <path
         inkscape:connector-curvature="0"
         style="opacity:1;fill:url(#linearGradient5033)"
         d="m 75.085,163.986 c 6.598,3.574 14.825,5.886 25.017,5.88 10.183,0.006 18.332,-2.283 24.839,-5.829 -0.428,-0.713 -0.708,-1.563 -0.72,-2.304 -0.126,-9.877 3.345,-34.021 4.076,-38.983 l -56.594,0 c 0.73,4.963 4.202,29.106 4.074,38.982 -0.009,0.709 -0.28,1.547 -0.692,2.254 z"
         id="path4867" />
    </g>
    <g
       id="g4879"
       transform="matrix(1.0106865,0,0,1.0490049,357.29325,46.019984)">
      <path
         id="path4881"
         d="m 47.001,83.231 c -1.376,-2.453 -5.638,-8.48 -9.98,-7.003 -2.749,0.935 -3.293,3.993 -3.735,6.693 -0.588,3.591 0.471,10.694 1.389,13.26 0.881,2.467 3.533,7.23 5.264,9.045 2.13,2.225 4.775,9.324 5.194,10.061 0.66,1.162 1.536,2.911 4.122,2.692 2.853,-0.244 4.584,-1.85 5.856,-2.121 3.142,-0.666 -4.529,-26.242 -8.11,-32.627 z"
         inkscape:connector-curvature="0"
         style="opacity:1;fill:#f0c7b1;stroke:#c27b55;stroke-width:1.5" />
      <path
         id="path4883"
         d="m 44.197,98.104 c -0.132,-0.581 0.007,-1.56 0.142,-2.504 0.124,-0.861 0.24,-1.675 0.169,-2.251 -0.267,-2.154 -1.773,-6.249 -2.757,-8.467 -1.132,-2.554 -2.963,-5.77 -5.262,-6.599 -0.95,-0.343 -1.575,0.067 -1.938,0.484 -0.266,0.305 -0.325,0.665 -0.238,0.707 0.086,0.042 0.285,-0.254 0.572,-0.535 0.235,-0.229 0.579,-0.426 1.051,-0.385 -0.19,1.073 -1.167,6.883 -0.744,10.845 0.333,3.115 1.593,5.442 1.79,5.791 0.029,0.367 0.077,0.726 0.148,1.075 0.929,4.547 4.971,9.717 6.378,11.409 0.259,0.313 0.531,0.497 0.598,0.423 0.066,-0.076 -0.094,-0.387 -0.353,-0.7 -1.388,-1.679 -5.391,-6.831 -6.289,-11.218 -0.952,-4.656 2.318,-11.556 3.048,-13.017 0.371,0.685 0.687,1.344 0.93,1.893 0.19,0.431 0.402,0.936 0.619,1.479 -0.429,0.762 -3.434,6.32 -2.338,10.767 0.406,1.641 2.235,3.755 3.447,4.333 0.667,0.32 0.919,0.797 1.209,1.349 0.336,0.64 0.718,1.365 1.828,1.892 0.225,0.108 0.429,0.151 0.61,0.151 0.313,0 0.551,-0.135 0.725,-0.293 0.018,0.28 0.017,0.64 0.009,0.97 -0.012,0.431 0.042,0.783 0.137,0.791 0.094,0.008 0.196,-0.332 0.207,-0.76 0.016,-0.526 0.013,-1.177 -0.072,-1.488 -0.248,-0.917 -1.008,-1.953 -1.813,-3.048 -0.789,-1.082 -1.607,-2.195 -1.813,-3.094 z M 36.95,94.073 c -2.177,-7.139 0.656,-13.3 1.144,-14.28 0.85,0.822 1.6,1.919 2.21,2.995 -0.444,0.858 -3.263,6.483 -3.354,11.285 z m 9.391,10.442 c -1.004,-0.475 -1.339,-1.115 -1.666,-1.733 -0.293,-0.559 -0.598,-1.136 -1.369,-1.505 -0.168,-0.081 -0.352,-0.203 -0.542,-0.343 -2.486,-6.263 0.272,-9.001 0.963,-9.562 0.211,0.766 0.369,1.468 0.439,2.031 0.063,0.517 -0.052,1.339 -0.167,2.134 -0.142,0.985 -0.286,2.004 -0.137,2.664 0.226,0.982 1.069,2.131 1.884,3.242 0.723,0.986 1.466,2.003 1.721,2.832 -0.108,0.164 -0.45,0.561 -1.126,0.24 z"
         stroke-width="none"
         inkscape:connector-curvature="0"
         style="opacity:1;fill:#c27b55" />
    </g>
    <g
       id="g4885"
       transform="matrix(1.0106865,0,0,1.0490049,363.18561,46.019984)">
      <path
         id="path4887"
         d="m 152.736,83.231 c 1.377,-2.453 5.639,-8.48 9.98,-7.003 2.75,0.935 3.293,3.993 3.736,6.693 0.588,3.591 -0.471,10.694 -1.389,13.26 -0.881,2.467 -3.533,7.23 -5.266,9.045 -2.129,2.225 -4.775,9.324 -5.193,10.061 -0.658,1.162 -1.535,2.911 -4.121,2.692 -2.854,-0.244 -4.584,-1.85 -5.857,-2.121 -3.142,-0.666 4.53,-26.242 8.11,-32.627 z"
         inkscape:connector-curvature="0"
         style="opacity:1;fill:#f0c7b1;stroke:#c27b55;stroke-width:1.5" />
      <path
         id="path4889"
         d="m 153.727,101.196 c -0.805,1.096 -1.564,2.131 -1.813,3.048 -0.086,0.311 -0.088,0.962 -0.072,1.488 0.012,0.428 0.113,0.768 0.207,0.76 0.094,-0.008 0.148,-0.36 0.137,-0.791 -0.008,-0.331 -0.008,-0.69 0.01,-0.97 0.174,0.158 0.412,0.293 0.725,0.293 0.182,0 0.385,-0.043 0.609,-0.151 1.109,-0.526 1.492,-1.252 1.828,-1.892 0.289,-0.552 0.543,-1.028 1.209,-1.349 1.213,-0.578 3.041,-2.692 3.447,-4.333 1.096,-4.447 -1.908,-10.005 -2.338,-10.767 0.217,-0.544 0.43,-1.049 0.619,-1.479 0.244,-0.549 0.559,-1.208 0.93,-1.893 0.73,1.46 4,8.361 3.049,13.017 -0.896,4.387 -4.9,9.539 -6.289,11.218 -0.258,0.313 -0.418,0.624 -0.352,0.7 0.066,0.074 0.338,-0.109 0.598,-0.423 1.406,-1.692 5.449,-6.862 6.379,-11.409 0.07,-0.35 0.117,-0.708 0.146,-1.075 0.197,-0.349 1.459,-2.676 1.791,-5.791 0.422,-3.961 -0.555,-9.772 -0.744,-10.845 0.473,-0.042 0.814,0.156 1.051,0.385 0.287,0.281 0.486,0.577 0.572,0.535 0.086,-0.042 0.027,-0.402 -0.238,-0.707 -0.363,-0.417 -0.988,-0.827 -1.938,-0.484 -2.299,0.83 -4.131,4.045 -5.262,6.599 -0.984,2.218 -2.49,6.313 -2.758,8.467 -0.072,0.576 0.045,1.39 0.17,2.251 0.135,0.945 0.273,1.924 0.141,2.504 -0.205,0.901 -1.023,2.014 -1.814,3.094 z m 5.707,-18.409 c 0.611,-1.075 1.361,-2.173 2.211,-2.995 0.488,0.98 3.32,7.141 1.145,14.28 -0.093,-4.801 -2.911,-10.426 -3.356,-11.285 z m -7.164,21.488 c 0.254,-0.829 0.998,-1.846 1.721,-2.832 0.816,-1.111 1.658,-2.26 1.885,-3.242 0.148,-0.66 0.004,-1.679 -0.137,-2.664 -0.115,-0.795 -0.23,-1.617 -0.166,-2.134 0.068,-0.563 0.227,-1.266 0.438,-2.031 0.691,0.561 3.449,3.299 0.965,9.562 -0.191,0.14 -0.375,0.263 -0.543,0.343 -0.771,0.369 -1.074,0.946 -1.369,1.505 -0.326,0.618 -0.662,1.258 -1.666,1.733 -0.677,0.321 -1.019,-0.076 -1.128,-0.24 z"
         stroke-width="none"
         inkscape:connector-curvature="0"
         style="opacity:1;fill:#c27b55" />
    </g>
    <g
       id="g4891"
       transform="matrix(1.0638806,0,0,1.1042158,354.92699,41.713637)">
      <g
         id="g4893">
        <path
           id="path4895"
           d="M 100.103,0.867 C 66.481,0.814 39.286,28.147 39.234,61.929 c -0.008,5.365 0.669,10.569 1.953,15.53 l 0.004,0 c 0.011,0.054 8.121,28.575 9.808,43.634 1.244,11.102 12.587,40.796 49.103,40.773 36.515,0.022 46.938,-29.431 48.897,-40.773 2.58,-14.929 10.001,-43.58 10.013,-43.634 l 0.005,0 c 1.283,-4.961 1.961,-10.165 1.952,-15.53 C 160.919,28.147 133.723,0.814 100.103,0.867 Z"
           stroke-width="none"
           inkscape:connector-curvature="0"
           style="opacity:1;fill:#f0c7b1" />
        <path
           id="path4897"
           d="m 135.855,12.494 c 11.761,11.195 19.223,27.819 19.246,46.408 0.008,5.365 -0.602,10.569 -1.761,15.53 l -0.005,0 c -0.011,0.054 -6.717,28.706 -9.05,43.634 -1.771,11.343 -11.189,40.795 -44.184,40.773 C 67.105,158.86 56.855,129.167 55.732,118.066 54.206,103.007 46.879,74.485 46.869,74.432 l -0.004,0 C 45.703,69.471 45.093,64.267 45.1,58.902 45.126,40.312 52.589,23.687 64.35,12.492 49.151,23.585 39.264,41.582 39.233,61.93 c -0.008,5.365 0.669,10.569 1.953,15.53 l 0.004,0 c 0.011,0.054 8.121,28.575 9.808,43.634 1.244,11.102 12.587,40.796 49.103,40.773 36.515,0.022 46.938,-29.431 48.897,-40.773 2.58,-14.929 10.001,-43.58 10.013,-43.634 l 0.005,0 c 1.283,-4.961 1.961,-10.165 1.952,-15.53 -0.029,-20.347 -9.915,-38.343 -25.113,-49.436 z"
           stroke-width="none"
           inkscape:connector-curvature="0"
           style="opacity:1;fill:#e8b9a0" />
        <path
           id="path4899"
           d="M 100.103,0.867 C 66.481,0.814 39.286,28.147 39.234,61.929 c -0.008,5.365 0.669,10.569 1.953,15.53 l 0.004,0 c 0.011,0.054 8.121,28.575 9.808,43.634 1.244,11.102 12.587,40.796 49.103,40.773 36.515,0.022 46.938,-29.431 48.897,-40.773 2.58,-14.929 10.001,-43.58 10.013,-43.634 l 0.005,0 c 1.283,-4.961 1.961,-10.165 1.952,-15.53 C 160.919,28.147 133.723,0.814 100.103,0.867 Z"
           inkscape:connector-curvature="0"
           style="opacity:1;fill:none;stroke:#c27b55;stroke-width:1.5" />
      </g>
    </g>
    <g
       id="g4901"
       transform="matrix(1.2766578,0,0,1.3250601,332.62756,8.068514)">
      <path
         id="path4903"
         d="m 99.825,142.068 c -3.24,0 -4.753,-2.802 -4.753,-2.802 0,0 4.797,0.781 9.279,-0.064 0.001,0 -1.676,2.866 -4.526,2.866 z"
         style="opacity:1;fill:url(#linearGradient5035)"
         inkscape:connector-curvature="0" />
      <path
         id="path4905"
         d="m 95.211,139.349 c -0.132,-0.039 -0.23,-0.149 -0.208,-0.285 0.021,-0.137 0.151,-0.224 0.286,-0.209 3.612,0.857 5.963,0.661 8.766,-0.043 0.145,-0.035 0.27,0.062 0.297,0.195 0.027,0.133 -0.063,0.256 -0.193,0.296 -3.061,0.904 -6.017,0.938 -8.948,0.046 z m -9.764,-5.391 c 0.313,-0.144 0.582,-0.086 1.073,-0.115 1.419,-0.249 3.128,-0.323 4.54,-0.611 1.348,-0.274 2.774,-0.662 4.158,-0.597 1.488,0.071 2.879,0.669 4.353,0.829 1.401,0.151 2.708,-0.229 4.053,-0.557 1.542,-0.376 3.01,-0.287 4.56,0.006 1.938,0.363 3.774,0.857 5.689,1.038 0.582,0.055 0.365,0.413 0.032,0.454 -1.713,0.205 -3.431,-0.068 -5.194,-0.249 -1.425,-0.146 -2.868,-0.329 -4.274,0.021 -1.518,0.379 -3.437,0.822 -4.605,0.808 -1.3,-0.017 -2.521,-0.538 -3.784,-0.807 -1.551,-0.327 -3.091,-0.02 -4.647,0.143 -1.938,0.201 -3.672,0.34 -5.579,0.047 -0.51,-0.078 -0.516,-0.345 -0.375,-0.41 z"
         stroke-width="none"
         inkscape:connector-curvature="0"
         style="opacity:1;fill:#c27b55" />
    </g>
    <g
       id="g4907"
       transform="matrix(1.0638806,0,0,0.85089145,355.05475,64.397509)">
      <g
         id="g4909">
        <path
           id="path4911"
           d="m 61.752,82.523 c -0.506,-2.285 5.191,-3.973 12.711,-3.051 7.518,0.923 12.738,5.524 12.052,7.844 -0.38,1.286 -10.639,3.245 -14.253,2.847 -3.664,-0.405 -9.288,-2.123 -10.51,-7.64 z"
           style="opacity:1;fill:url(#radialGradient5037)"
           inkscape:connector-curvature="0" />
      </g>
      <g
         id="g4913"
         transform="translate(0.25,0.25)">
        <g
           id="g4915">
          <g
             id="g4917">
            <path
               id="path4919"
               d="m 80,84 c 0,3.313 -2.687,6 -6,6 -3.313,0 -6,-2.687 -6,-6 l 0,0 c 0,-3.314 2.687,-6 6,-6 3.313,-0.001 6,2.686 6,6 l 0,0 z"
               stroke-width="none"
               inkscape:connector-curvature="0"
               style="opacity:1;fill:#4d3623;stroke:none" />
            <path
               id="path4921"
               d="m 73.328,78.066 c -0.023,0.003 -0.047,0.006 -0.071,0.009 0.029,0.135 0.057,0.271 0.085,0.406 -0.006,-0.137 -0.009,-0.277 -0.014,-0.415 z m 0.013,0.414 c 0.07,1.972 0.185,3.729 0.517,4.364 0.175,-0.696 -0.123,-2.43 -0.517,-4.364 z m 0.518,4.365 c -0.043,0.167 -0.108,0.281 -0.208,0.319 -0.1,0.038 -0.226,-0.006 -0.368,-0.103 0.041,0.167 0.037,0.297 -0.036,0.378 -0.072,0.081 -0.201,0.101 -0.373,0.078 0.113,0.13 0.171,0.249 0.146,0.353 -0.027,0.104 -0.134,0.182 -0.293,0.242 0.159,0.063 0.266,0.141 0.291,0.245 0.025,0.104 -0.033,0.223 -0.145,0.352 0.17,-0.021 0.301,10e-4 0.371,0.082 0.071,0.081 0.075,0.212 0.035,0.379 0.141,-0.097 0.265,-0.139 0.365,-0.1 0.101,0.038 0.166,0.152 0.206,0.32 0.081,-0.152 0.171,-0.249 0.28,-0.26 0.104,-0.014 0.216,0.059 0.329,0.188 10e-4,-0.172 0.037,-0.299 0.127,-0.36 0.088,-0.061 0.219,-0.049 0.379,0.013 -0.078,-0.152 -0.105,-0.281 -0.055,-0.377 0.05,-0.095 0.173,-0.146 0.344,-0.166 -0.141,-0.099 -0.227,-0.2 -0.225,-0.308 0,-0.108 0.084,-0.209 0.227,-0.306 -0.17,-0.021 -0.291,-0.072 -0.342,-0.167 -0.049,-0.095 -0.022,-0.225 0.058,-0.377 -0.162,0.06 -0.292,0.072 -0.38,0.011 -0.089,-0.061 -0.125,-0.188 -0.125,-0.36 -0.112,0.128 -0.224,0.199 -0.33,0.185 -0.108,-0.014 -0.199,-0.108 -0.278,-0.261 z m 0.607,0.075 c 0.479,-0.535 1.021,-2.209 1.57,-4.104 -0.854,1.777 -1.569,3.386 -1.57,4.104 z m 1.569,-4.104 c 0.06,-0.122 0.121,-0.246 0.178,-0.37 -0.021,-0.007 -0.042,-0.017 -0.063,-0.026 -0.038,0.133 -0.076,0.266 -0.115,0.396 z m -1.063,4.454 c 0.672,-0.252 1.931,-1.483 3.297,-2.905 -1.581,1.176 -2.963,2.269 -3.297,2.905 z m 3.297,-2.905 c 0.1,-0.075 0.203,-0.15 0.305,-0.225 -0.014,-0.018 -0.03,-0.033 -0.042,-0.049 -0.087,0.09 -0.174,0.183 -0.263,0.274 z m -3.015,3.449 c 0.713,0.088 2.4,-0.417 4.272,-1.041 -1.948,0.308 -3.678,0.633 -4.272,1.041 z m 4.272,-1.04 c 0.11,-0.016 0.225,-0.034 0.337,-0.052 -0.004,-0.019 -0.009,-0.038 -0.014,-0.057 -0.107,0.036 -0.217,0.073 -0.323,0.109 z m -4.273,1.653 c 0.59,0.412 2.318,0.747 4.262,1.063 -1.865,-0.633 -3.548,-1.148 -4.262,-1.063 z m 4.263,1.063 c 0.095,0.033 0.191,0.067 0.285,0.098 0.005,-0.017 0.009,-0.033 0.012,-0.05 -0.097,-0.015 -0.198,-0.031 -0.297,-0.048 z m -4.551,-0.52 c 0.333,0.637 1.708,1.738 3.282,2.924 -1.359,-1.43 -2.609,-2.668 -3.282,-2.924 z m 3.283,2.922 c 0.059,0.062 0.12,0.126 0.179,0.189 0.01,-0.012 0.019,-0.021 0.03,-0.032 -0.07,-0.052 -0.142,-0.105 -0.209,-0.157 z M 74.46,85.317 c -0.003,0.719 0.703,2.331 1.547,4.113 -0.539,-1.897 -1.07,-3.575 -1.547,-4.113 z m 1.547,4.114 c 0.021,0.075 0.043,0.152 0.063,0.229 0.015,-0.006 0.025,-0.01 0.039,-0.014 -0.033,-0.072 -0.068,-0.146 -0.102,-0.215 z m -2.156,-4.042 c -0.336,0.637 -0.461,2.39 -0.542,4.361 0.404,-1.93 0.713,-3.663 0.542,-4.361 z m -0.542,4.361 c -0.017,0.075 -0.031,0.151 -0.047,0.228 0.014,0.003 0.025,0.003 0.039,0.005 0.002,-0.077 0.006,-0.157 0.008,-0.233 z M 73.28,85.169 c -0.596,0.407 -1.521,1.904 -2.508,3.61 1.254,-1.52 2.334,-2.912 2.508,-3.61 z m -2.508,3.61 c -0.053,0.063 -0.108,0.13 -0.162,0.193 0.013,0.008 0.024,0.014 0.038,0.024 0.04,-0.072 0.083,-0.145 0.124,-0.217 z m 2.103,-4.069 c -0.716,0.083 -2.231,0.978 -3.898,2.029 1.818,-0.762 3.418,-1.491 3.898,-2.029 z m -3.899,2.031 c -0.086,0.036 -0.174,0.072 -0.263,0.11 0.006,0.013 0.015,0.027 0.023,0.04 0.081,-0.049 0.161,-0.1 0.24,-0.15 z m 3.752,-2.628 c -0.671,-0.257 -2.429,-0.168 -4.395,-0.011 1.964,0.168 3.722,0.265 4.395,0.011 z m -4.395,-0.011 c -0.107,-0.01 -0.217,-0.02 -0.323,-0.029 0,0.019 -0.002,0.038 0,0.056 0.109,-0.01 0.218,-0.019 0.323,-0.027 z m 4.542,-0.583 c -0.473,-0.539 -2.069,-1.277 -3.881,-2.051 1.659,1.06 3.169,1.964 3.881,2.051 z m -3.881,-2.051 c -0.104,-0.067 -0.209,-0.134 -0.315,-0.201 -0.009,0.019 -0.019,0.038 -0.029,0.055 0.116,0.049 0.232,0.097 0.344,0.146 z m 4.29,1.593 c -0.169,-0.698 -1.241,-2.094 -2.485,-3.623 0.976,1.712 1.893,3.213 2.485,3.623 z m -2.485,-3.623 c -0.067,-0.115 -0.132,-0.232 -0.199,-0.349 -0.019,0.013 -0.039,0.026 -0.056,0.039 0.084,0.103 0.172,0.207 0.255,0.31 z"
               style="opacity:0.7;fill:url(#radialGradient5039)"
               inkscape:connector-curvature="0" />
            <path
               id="path4923"
               d="m 74.886,78.086 c -0.024,-0.003 -0.047,-0.007 -0.07,-0.01 -0.007,0.138 -0.016,0.277 -0.024,0.414 0.03,-0.134 0.063,-0.27 0.094,-0.404 z m -0.095,0.403 c -0.442,1.922 -0.787,3.649 -0.629,4.35 0.349,-0.628 0.509,-2.38 0.629,-4.35 z m -0.63,4.35 c -0.084,0.15 -0.176,0.243 -0.283,0.254 -0.106,0.01 -0.216,-0.064 -0.327,-0.195 -0.004,0.171 -0.042,0.297 -0.133,0.356 -0.09,0.059 -0.221,0.045 -0.38,-0.021 0.076,0.155 0.101,0.285 0.049,0.378 -0.053,0.094 -0.176,0.142 -0.345,0.158 0.137,0.101 0.22,0.204 0.217,0.312 -0.002,0.107 -0.089,0.207 -0.231,0.302 0.169,0.024 0.29,0.079 0.337,0.174 0.048,0.096 0.018,0.225 -0.064,0.375 0.161,-0.057 0.292,-0.065 0.379,-0.002 0.087,0.063 0.12,0.19 0.116,0.363 0.117,-0.125 0.229,-0.196 0.337,-0.179 0.105,0.014 0.194,0.113 0.27,0.268 0.045,-0.167 0.113,-0.279 0.216,-0.315 0.101,-0.036 0.225,0.01 0.363,0.111 -0.036,-0.167 -0.029,-0.299 0.044,-0.378 0.073,-0.079 0.205,-0.096 0.376,-0.072 -0.111,-0.132 -0.168,-0.251 -0.138,-0.355 0.028,-0.104 0.136,-0.18 0.299,-0.237 -0.16,-0.064 -0.263,-0.145 -0.288,-0.25 -0.023,-0.105 0.037,-0.223 0.154,-0.349 -0.172,0.016 -0.301,-0.006 -0.37,-0.088 -0.07,-0.082 -0.072,-0.214 -0.028,-0.379 -0.142,0.094 -0.268,0.134 -0.367,0.093 -0.103,-0.041 -0.165,-0.156 -0.203,-0.324 z m 0.568,0.231 c 0.601,-0.394 1.557,-1.871 2.578,-3.558 -1.285,1.495 -2.391,2.863 -2.578,3.558 z m 2.578,-3.559 c 0.089,-0.102 0.18,-0.206 0.268,-0.311 -0.019,-0.013 -0.036,-0.028 -0.055,-0.042 -0.071,0.119 -0.142,0.238 -0.213,0.353 z m -2.18,4.027 c 0.715,-0.07 2.25,-0.934 3.937,-1.953 -1.833,0.727 -3.45,1.425 -3.937,1.953 z m 3.936,-1.954 c 0.117,-0.046 0.235,-0.092 0.354,-0.138 -0.01,-0.021 -0.021,-0.04 -0.028,-0.059 -0.108,0.066 -0.216,0.133 -0.326,0.197 z m -3.804,2.553 c 0.666,0.27 2.426,0.218 4.395,0.101 -1.961,-0.208 -3.716,-0.342 -4.395,-0.101 z m 4.395,0.1 c 0.112,0.013 0.226,0.025 0.339,0.037 0,-0.02 0.001,-0.039 0.002,-0.058 -0.114,0.007 -0.229,0.014 -0.341,0.021 z M 75.1,84.729 c 0.462,0.551 2.046,1.321 3.842,2.129 -1.639,-1.095 -3.131,-2.027 -3.842,-2.129 z m 3.841,2.129 c 0.083,0.057 0.167,0.114 0.25,0.168 0.009,-0.015 0.017,-0.03 0.025,-0.045 -0.09,-0.039 -0.184,-0.081 -0.275,-0.123 z M 74.68,85.179 c 0.156,0.701 1.2,2.12 2.414,3.674 -0.943,-1.734 -1.83,-3.254 -2.414,-3.674 z m 2.414,3.671 c 0.042,0.075 0.083,0.153 0.125,0.229 0.012,-0.009 0.024,-0.016 0.037,-0.024 -0.054,-0.068 -0.109,-0.138 -0.162,-0.205 z m -2.991,-3.467 c -0.188,0.693 0.076,2.433 0.43,4.373 -0.031,-1.972 -0.109,-3.73 -0.43,-4.373 z m 0.429,4.373 c 0.001,0.078 0.003,0.158 0.003,0.238 0.014,-0.002 0.027,-0.004 0.041,-0.004 -0.014,-0.077 -0.029,-0.157 -0.044,-0.234 z m -1.036,-4.462 c -0.49,0.528 -1.064,2.189 -1.652,4.072 0.889,-1.759 1.637,-3.353 1.652,-4.072 z m -1.653,4.072 c -0.035,0.068 -0.07,0.138 -0.104,0.208 0.012,0.006 0.023,0.009 0.036,0.015 0.022,-0.073 0.046,-0.15 0.068,-0.223 z M 73,84.934 c -0.68,0.239 -1.962,1.446 -3.357,2.838 1.607,-1.144 3.009,-2.209 3.357,-2.838 z m -3.356,2.838 c -0.067,0.047 -0.137,0.098 -0.205,0.145 0.01,0.011 0.02,0.02 0.029,0.032 0.057,-0.059 0.117,-0.117 0.176,-0.177 z m 3.084,-3.387 c -0.713,-0.104 -2.407,0.368 -4.291,0.952 1.955,-0.266 3.688,-0.556 4.291,-0.952 z m -4.291,0.954 c -0.092,0.013 -0.187,0.024 -0.283,0.039 0.003,0.015 0.008,0.03 0.013,0.044 0.091,-0.026 0.181,-0.056 0.27,-0.083 z m 4.304,-1.567 c -0.582,-0.423 -2.303,-0.792 -4.242,-1.149 1.854,0.671 3.526,1.22 4.242,1.149 z m -4.242,-1.149 c -0.101,-0.037 -0.205,-0.075 -0.305,-0.112 -0.005,0.019 -0.011,0.037 -0.015,0.054 0.109,0.019 0.216,0.039 0.32,0.058 z m 4.539,0.612 c -0.318,-0.643 -1.668,-1.769 -3.219,-2.986 1.328,1.455 2.553,2.719 3.219,2.986 z m -3.22,-2.985 c -0.083,-0.091 -0.167,-0.183 -0.251,-0.275 -0.014,0.016 -0.029,0.031 -0.042,0.046 0.099,0.076 0.198,0.152 0.293,0.229 z m 3.733,2.649 c 0.017,-0.718 -0.656,-2.344 -1.464,-4.142 0.5,1.906 0.998,3.593 1.464,4.142 z m -1.464,-4.142 c -0.034,-0.128 -0.067,-0.259 -0.101,-0.389 -0.021,0.007 -0.043,0.015 -0.063,0.023 0.054,0.122 0.11,0.245 0.164,0.366 z"
               style="opacity:0.4;fill:url(#radialGradient5041)"
               inkscape:connector-curvature="0" />
            <path
               id="path4925"
               d="m 76.354,84 c 0,1.3 -1.053,2.353 -2.353,2.353 -1.299,0 -2.354,-1.053 -2.354,-2.353 0,-1.299 1.055,-2.354 2.354,-2.354 1.3,0 2.353,1.054 2.353,2.354 z"
               stroke-width="none"
               inkscape:connector-curvature="0"
               style="opacity:1;fill:#4d3623;stroke:none" />
            <path
               id="path4927"
               d="m 76.354,84 c 0,1.3 -1.053,2.353 -2.353,2.353 -1.299,0 -2.354,-1.053 -2.354,-2.353 0,-1.299 1.055,-2.354 2.354,-2.354 1.3,0 2.353,1.054 2.353,2.354 z"
               stroke-width="none"
               inkscape:connector-curvature="0"
               style="opacity:0.9;fill:#000000" />
            <path
               id="path4929"
               d="m 70.717,86.748 c 0.449,-0.302 1.059,-0.18 1.36,0.268 0.301,0.449 0.182,1.059 -0.268,1.36 -0.45,0.303 -1.059,0.183 -1.36,-0.267 -0.301,-0.449 -0.181,-1.06 0.268,-1.361 l 0,0 z"
               style="opacity:0.5;fill:url(#linearGradient5043)"
               inkscape:connector-curvature="0" />
            <path
               id="path4931"
               d="m 75.86,83.672 c -0.251,0.374 -0.969,0.331 -1.606,-0.096 -0.638,-0.427 -0.95,-1.078 -0.7,-1.451 l 0,-0.001 c 0.25,-0.374 0.969,-0.331 1.605,0.097 0.639,0.426 0.951,1.076 0.701,1.451 0,0 0,0 0,0 z"
               style="opacity:0.5;fill:url(#linearGradient5045)"
               inkscape:connector-curvature="0" />
            <path
               id="path4933"
               d="m 78.716,82.673 c -0.568,0.873 -2.036,0.925 -3.275,0.117 -1.24,-0.808 -1.784,-2.17 -1.215,-3.043 0.568,-0.872 2.036,-0.924 3.275,-0.117 1.239,0.809 1.783,2.172 1.215,3.043 l 0,0 z"
               style="opacity:0.75;fill:url(#linearGradient5047)"
               inkscape:connector-curvature="0" />
          </g>
        </g>
      </g>
      <g
         id="g4935">
        <path
           id="path4937"
           d="m 53.294,83 c 0.809,10.899 11.637,23.583 20.506,22.236 10.498,0.106 20.864,-7.868 20.864,-22.305 0,-14.437 -5.087,-26.528 -21.127,-26.528 C 62.037,56.402 53.294,68.563 53.294,83 Z m 8.458,-0.477 c -0.506,-2.285 5.191,-3.973 12.711,-3.051 7.518,0.923 12.738,5.524 12.052,7.844 -0.38,1.286 -10.639,3.245 -14.253,2.847 -3.664,-0.405 -9.288,-2.123 -10.51,-7.64 z"
           stroke-width="none"
           inkscape:connector-curvature="0"
           style="opacity:1;fill:#f0c7b1" />
        <path
           id="path4939"
           d="m 72.262,90.163 c 3.614,0.398 13.873,-1.561 14.253,-2.847 0.687,-2.32 -4.534,-6.921 -12.052,-7.844 -6.46,-0.792 -11.563,0.344 -12.556,2.128 0.898,-6.4 7.7,-11.397 15.987,-11.434 8.911,-0.037 16.148,5.676 16.172,12.765 0.021,7.088 -7.185,12.862 -16.095,12.902 -8.913,0.037 -16.149,-5.676 -16.173,-12.764 0,-0.105 0.016,-0.208 0.019,-0.313 1.33,5.327 6.834,7.008 10.445,7.407 z"
           style="opacity:1;fill:url(#radialGradient5049)"
           inkscape:connector-curvature="0" />
        <path
           id="path4941"
           d="m 61.752,82.523 c -0.506,-2.285 5.191,-3.973 12.711,-3.051 7.518,0.923 12.738,5.524 12.052,7.844 -0.38,1.286 -10.639,3.245 -14.253,2.847 -3.664,-0.405 -9.288,-2.123 -10.51,-7.64 z"
           style="opacity:1;fill:url(#radialGradient5051)"
           inkscape:connector-curvature="0" />
        <path
           id="path4943"
           d="m 62.148,77.417 c 4.208,-1.978 9.35,-2.16 13.838,-1.005 2.404,0.561 4.965,1.285 7.063,2.638 1.945,1.135 3.525,2.5 5.002,4.19 -1.342,-1.701 -2.773,-3.118 -4.623,-4.27 -2.276,-1.416 -4.769,-2.294 -7.364,-2.916 -4.586,-1.126 -9.722,-0.87 -13.916,1.363 z"
           stroke-width="none"
           inkscape:connector-curvature="0"
           style="opacity:1;fill:#c27b55" />
        <path
           id="path4945"
           d="m 62.769,78.02 c 0.88,-0.352 4.065,-1 5.456,-1.066 1.687,-0.082 5.073,0.125 6.735,0.424 3.374,0.608 9.251,2.483 11.678,7.184 0.746,1.445 0.074,2.456 -0.123,2.675 0.3,-2.426 -4.838,-6.746 -12.052,-7.604 -7.52,-0.894 -13.217,0.743 -12.711,2.958 1.222,5.348 6.846,7.013 10.51,7.405 4.099,0.439 11.684,-1.539 12.686,-1.753 -1.999,1.009 -7.524,2.095 -9.767,2.303 -0.744,0.07 -2.24,0.104 -2.986,0.085 -5.949,-0.158 -10.169,-3.175 -11.729,-7.26 -1.002,-2.626 0.094,-4.469 2.303,-5.351 z"
           stroke-width="none"
           inkscape:connector-curvature="0"
           style="opacity:1;fill:#000000" />
      </g>
    </g>
    <g
       id="g4947"
       transform="matrix(1.0638806,0,0,0.86355767,354.79922,63.063075)">
      <g
         id="g4949">
        <path
           id="path4951"
           d="m 137.849,82.523 c 0.506,-2.285 -5.191,-3.973 -12.711,-3.051 -7.518,0.923 -12.738,5.524 -12.052,7.844 0.38,1.286 10.639,3.245 14.253,2.847 3.664,-0.405 9.288,-2.123 10.51,-7.64 z"
           style="opacity:1;fill:url(#radialGradient5053)"
           inkscape:connector-curvature="0" />
      </g>
      <g
         id="g4953"
         transform="translate(-0.25,0.25)">
        <g
           id="g4955">
          <g
             id="g4957">
            <path
               id="path4959"
               d="m 132,84 c 0,3.313 -2.687,6 -5.999,6 C 122.688,90 120,87.313 120,84 l 0,0 c 0,-3.314 2.688,-6 6.001,-6 3.312,-0.001 5.999,2.686 5.999,6 l 0,0 z"
               stroke-width="none"
               inkscape:connector-curvature="0"
               style="opacity:1;fill:#4d3623;stroke:none" />
            <path
               id="path4961"
               d="m 125.328,78.066 c -0.023,0.003 -0.047,0.006 -0.071,0.009 0.029,0.135 0.058,0.271 0.085,0.406 -0.006,-0.137 -0.009,-0.277 -0.014,-0.415 z m 0.013,0.414 c 0.069,1.972 0.185,3.729 0.518,4.364 0.174,-0.696 -0.124,-2.43 -0.518,-4.364 z m 0.517,4.365 c -0.042,0.167 -0.108,0.281 -0.207,0.319 -0.101,0.038 -0.226,-0.006 -0.367,-0.103 0.04,0.167 0.036,0.297 -0.036,0.378 -0.072,0.081 -0.201,0.101 -0.372,0.078 0.112,0.13 0.171,0.249 0.146,0.353 -0.028,0.104 -0.134,0.182 -0.293,0.242 0.158,0.063 0.265,0.141 0.29,0.245 0.025,0.104 -0.032,0.223 -0.145,0.352 0.17,-0.021 0.3,10e-4 0.37,0.082 0.071,0.081 0.075,0.212 0.035,0.379 0.141,-0.097 0.266,-0.139 0.365,-0.1 0.102,0.038 0.166,0.152 0.206,0.32 0.08,-0.152 0.172,-0.249 0.279,-0.26 0.105,-0.014 0.217,0.059 0.329,0.188 0.002,-0.172 0.037,-0.299 0.128,-0.36 0.087,-0.061 0.219,-0.049 0.379,0.013 -0.078,-0.152 -0.104,-0.281 -0.056,-0.377 0.051,-0.095 0.174,-0.146 0.345,-0.166 -0.141,-0.099 -0.228,-0.2 -0.225,-0.308 -10e-4,-0.108 0.084,-0.209 0.227,-0.306 -0.171,-0.021 -0.291,-0.072 -0.342,-0.167 -0.05,-0.095 -0.022,-0.225 0.057,-0.377 -0.161,0.06 -0.291,0.072 -0.38,0.011 -0.089,-0.061 -0.124,-0.188 -0.125,-0.36 -0.111,0.128 -0.224,0.199 -0.33,0.185 -0.107,-0.014 -0.198,-0.108 -0.278,-0.261 z m 0.608,0.075 c 0.479,-0.535 1.021,-2.209 1.569,-4.104 -0.853,1.777 -1.567,3.386 -1.569,4.104 z m 1.569,-4.104 c 0.06,-0.122 0.121,-0.246 0.179,-0.37 -0.021,-0.007 -0.042,-0.017 -0.063,-0.026 -0.039,0.133 -0.077,0.266 -0.116,0.396 z m -1.063,4.454 c 0.673,-0.252 1.932,-1.483 3.298,-2.905 -1.582,1.176 -2.963,2.269 -3.298,2.905 z m 3.298,-2.905 c 0.1,-0.075 0.202,-0.15 0.305,-0.225 -0.015,-0.018 -0.03,-0.033 -0.042,-0.049 -0.088,0.09 -0.175,0.183 -0.263,0.274 z m -3.015,3.449 c 0.713,0.088 2.399,-0.417 4.271,-1.041 -1.948,0.308 -3.678,0.633 -4.271,1.041 z m 4.271,-1.04 c 0.11,-0.016 0.225,-0.034 0.337,-0.052 -0.005,-0.019 -0.009,-0.038 -0.014,-0.057 -0.107,0.036 -0.217,0.073 -0.323,0.109 z m -4.273,1.653 c 0.591,0.412 2.318,0.747 4.263,1.063 -1.866,-0.633 -3.549,-1.148 -4.263,-1.063 z m 4.263,1.063 c 0.095,0.033 0.19,0.067 0.285,0.098 0.005,-0.017 0.009,-0.033 0.013,-0.05 -0.098,-0.015 -0.2,-0.031 -0.298,-0.048 z m -4.551,-0.52 c 0.332,0.637 1.708,1.738 3.282,2.924 -1.358,-1.43 -2.609,-2.668 -3.282,-2.924 z m 3.283,2.922 c 0.059,0.062 0.119,0.126 0.178,0.189 0.01,-0.012 0.02,-0.021 0.031,-0.032 -0.07,-0.052 -0.142,-0.105 -0.209,-0.157 z m -3.787,-2.575 c -0.003,0.719 0.702,2.331 1.547,4.113 -0.54,-1.897 -1.071,-3.575 -1.547,-4.113 z m 1.547,4.114 c 0.021,0.075 0.043,0.152 0.063,0.229 0.015,-0.006 0.026,-0.01 0.039,-0.014 -0.034,-0.072 -0.069,-0.146 -0.102,-0.215 z m -2.157,-4.042 c -0.336,0.637 -0.461,2.39 -0.542,4.361 0.404,-1.93 0.713,-3.663 0.542,-4.361 z m -0.542,4.361 c -0.017,0.075 -0.031,0.151 -0.047,0.228 0.014,0.003 0.024,0.003 0.039,0.005 0.002,-0.077 0.006,-0.157 0.008,-0.233 z m -0.03,-4.581 c -0.596,0.407 -1.521,1.904 -2.508,3.61 1.255,-1.52 2.334,-2.912 2.508,-3.61 z m -2.508,3.61 c -0.052,0.063 -0.107,0.13 -0.161,0.193 0.013,0.008 0.024,0.014 0.037,0.024 0.041,-0.072 0.084,-0.145 0.124,-0.217 z m 2.103,-4.069 c -0.716,0.083 -2.23,0.978 -3.897,2.029 1.818,-0.762 3.418,-1.491 3.897,-2.029 z m -3.897,2.031 c -0.087,0.036 -0.175,0.072 -0.263,0.11 0.006,0.013 0.014,0.027 0.023,0.04 0.08,-0.049 0.16,-0.1 0.24,-0.15 z m 3.752,-2.628 c -0.672,-0.257 -2.43,-0.168 -4.396,-0.011 1.965,0.168 3.722,0.265 4.396,0.011 z m -4.396,-0.011 c -0.106,-0.01 -0.217,-0.02 -0.322,-0.029 -10e-4,0.019 -0.003,0.038 -10e-4,0.056 0.109,-0.01 0.218,-0.019 0.323,-0.027 z m 4.543,-0.583 c -0.474,-0.539 -2.069,-1.277 -3.882,-2.051 1.659,1.06 3.169,1.964 3.882,2.051 z m -3.882,-2.051 c -0.104,-0.067 -0.21,-0.134 -0.315,-0.201 -0.009,0.019 -0.019,0.038 -0.028,0.055 0.115,0.049 0.232,0.097 0.343,0.146 z m 4.29,1.593 c -0.169,-0.698 -1.241,-2.094 -2.485,-3.623 0.976,1.712 1.893,3.213 2.485,3.623 z m -2.485,-3.623 c -0.067,-0.115 -0.133,-0.232 -0.198,-0.349 -0.019,0.013 -0.039,0.026 -0.057,0.039 0.085,0.103 0.172,0.207 0.255,0.31 z"
               style="opacity:0.7;fill:url(#radialGradient5055)"
               inkscape:connector-curvature="0" />
            <path
               id="path4963"
               d="m 126.886,78.086 c -0.024,-0.003 -0.047,-0.007 -0.07,-0.01 -0.008,0.138 -0.016,0.277 -0.024,0.414 0.029,-0.134 0.062,-0.27 0.094,-0.404 z m -0.095,0.403 c -0.443,1.922 -0.787,3.649 -0.63,4.35 0.35,-0.628 0.51,-2.38 0.63,-4.35 z m -0.63,4.35 c -0.084,0.15 -0.177,0.243 -0.283,0.254 -0.106,0.01 -0.216,-0.064 -0.327,-0.195 -0.004,0.171 -0.042,0.297 -0.133,0.356 -0.09,0.059 -0.221,0.045 -0.38,-0.021 0.075,0.155 0.101,0.285 0.049,0.378 -0.054,0.094 -0.176,0.142 -0.346,0.158 0.138,0.101 0.22,0.204 0.217,0.312 -0.002,0.107 -0.089,0.207 -0.23,0.302 0.17,0.024 0.289,0.079 0.337,0.174 0.048,0.096 0.018,0.225 -0.064,0.375 0.162,-0.057 0.293,-0.065 0.38,-0.002 0.087,0.063 0.12,0.19 0.115,0.363 0.117,-0.125 0.229,-0.196 0.337,-0.179 0.105,0.014 0.194,0.113 0.27,0.268 0.046,-0.167 0.113,-0.279 0.216,-0.315 0.101,-0.036 0.226,0.01 0.363,0.111 -0.035,-0.167 -0.028,-0.299 0.045,-0.378 0.072,-0.079 0.204,-0.096 0.375,-0.072 -0.11,-0.132 -0.168,-0.251 -0.138,-0.355 0.027,-0.104 0.136,-0.18 0.299,-0.237 -0.159,-0.064 -0.263,-0.145 -0.288,-0.25 -0.022,-0.105 0.038,-0.223 0.154,-0.349 -0.172,0.016 -0.302,-0.006 -0.37,-0.088 -0.07,-0.082 -0.072,-0.214 -0.027,-0.379 -0.143,0.094 -0.269,0.134 -0.368,0.093 -0.102,-0.041 -0.166,-0.156 -0.203,-0.324 z m 0.568,0.231 c 0.601,-0.394 1.557,-1.871 2.578,-3.558 -1.285,1.495 -2.391,2.863 -2.578,3.558 z m 2.578,-3.559 c 0.089,-0.102 0.18,-0.206 0.269,-0.311 -0.02,-0.013 -0.037,-0.028 -0.056,-0.042 -0.071,0.119 -0.142,0.238 -0.213,0.353 z m -2.18,4.027 c 0.715,-0.07 2.249,-0.934 3.937,-1.953 -1.833,0.727 -3.45,1.425 -3.937,1.953 z m 3.936,-1.954 c 0.116,-0.046 0.234,-0.092 0.354,-0.138 -0.01,-0.021 -0.021,-0.04 -0.028,-0.059 -0.108,0.066 -0.216,0.133 -0.326,0.197 z m -3.804,2.553 c 0.666,0.27 2.426,0.218 4.396,0.101 -1.963,-0.208 -3.717,-0.342 -4.396,-0.101 z m 4.395,0.1 c 0.111,0.013 0.226,0.025 0.339,0.037 0.001,-0.02 0.001,-0.039 0.002,-0.058 -0.113,0.007 -0.229,0.014 -0.341,0.021 z m -4.554,0.492 c 0.463,0.551 2.046,1.321 3.842,2.129 -1.639,-1.095 -3.131,-2.027 -3.842,-2.129 z m 3.841,2.129 c 0.082,0.057 0.167,0.114 0.25,0.168 0.009,-0.015 0.018,-0.03 0.024,-0.045 -0.089,-0.039 -0.183,-0.081 -0.274,-0.123 z m -4.26,-1.679 c 0.155,0.701 1.199,2.12 2.413,3.674 -0.943,-1.734 -1.829,-3.254 -2.413,-3.674 z m 2.414,3.671 c 0.041,0.075 0.082,0.153 0.124,0.229 0.012,-0.009 0.023,-0.016 0.037,-0.024 -0.054,-0.068 -0.11,-0.138 -0.161,-0.205 z m -2.992,-3.467 c -0.188,0.693 0.076,2.433 0.43,4.373 -0.031,-1.972 -0.109,-3.73 -0.43,-4.373 z m 0.429,4.373 c 0.001,0.078 0.003,0.158 0.003,0.238 0.015,-0.002 0.026,-0.004 0.04,-0.004 -0.013,-0.077 -0.028,-0.157 -0.043,-0.234 z m -1.037,-4.462 c -0.489,0.528 -1.064,2.189 -1.652,4.072 0.89,-1.759 1.637,-3.353 1.652,-4.072 z m -1.652,4.072 c -0.035,0.068 -0.069,0.138 -0.104,0.208 0.012,0.006 0.022,0.009 0.035,0.015 0.023,-0.073 0.047,-0.15 0.069,-0.223 z M 125,84.934 c -0.68,0.239 -1.961,1.446 -3.356,2.838 1.606,-1.144 3.008,-2.209 3.356,-2.838 z m -3.356,2.838 c -0.067,0.047 -0.138,0.098 -0.205,0.145 0.01,0.011 0.02,0.02 0.029,0.032 0.057,-0.059 0.118,-0.117 0.176,-0.177 z m 3.084,-3.387 c -0.713,-0.104 -2.406,0.368 -4.29,0.952 1.954,-0.266 3.688,-0.556 4.29,-0.952 z m -4.29,0.954 c -0.093,0.013 -0.188,0.024 -0.283,0.039 0.004,0.015 0.008,0.03 0.013,0.044 0.09,-0.026 0.18,-0.056 0.27,-0.083 z m 4.303,-1.567 c -0.582,-0.423 -2.303,-0.792 -4.242,-1.149 1.854,0.671 3.526,1.22 4.242,1.149 z m -4.242,-1.149 c -0.101,-0.037 -0.205,-0.075 -0.305,-0.112 -0.006,0.019 -0.011,0.037 -0.015,0.054 0.108,0.019 0.216,0.039 0.32,0.058 z m 4.539,0.612 c -0.318,-0.643 -1.669,-1.769 -3.22,-2.986 1.329,1.455 2.554,2.719 3.22,2.986 z m -3.22,-2.985 c -0.083,-0.091 -0.167,-0.183 -0.251,-0.275 -0.015,0.016 -0.028,0.031 -0.043,0.046 0.099,0.076 0.2,0.152 0.294,0.229 z m 3.733,2.649 c 0.017,-0.718 -0.656,-2.344 -1.464,-4.142 0.501,1.906 0.998,3.593 1.464,4.142 z m -1.464,-4.142 c -0.034,-0.128 -0.067,-0.259 -0.102,-0.389 -0.021,0.007 -0.043,0.015 -0.063,0.023 0.055,0.122 0.111,0.245 0.165,0.366 z"
               style="opacity:0.4;fill:url(#radialGradient5057)"
               inkscape:connector-curvature="0" />
            <path
               id="path4965"
               d="m 128.354,84 c 0,1.3 -1.054,2.353 -2.353,2.353 -1.3,0 -2.354,-1.053 -2.354,-2.353 0,-1.299 1.055,-2.354 2.354,-2.354 1.301,0 2.353,1.054 2.353,2.354 z"
               stroke-width="none"
               inkscape:connector-curvature="0"
               style="opacity:1;fill:#4d3623;stroke:none" />
            <path
               id="path4967"
               d="m 128.354,84 c 0,1.3 -1.054,2.353 -2.353,2.353 -1.3,0 -2.354,-1.053 -2.354,-2.353 0,-1.299 1.055,-2.354 2.354,-2.354 1.301,0 2.353,1.054 2.353,2.354 z"
               stroke-width="none"
               inkscape:connector-curvature="0"
               style="opacity:0.9;fill:#000000" />
            <path
               id="path4969"
               d="m 122.718,86.748 c 0.448,-0.302 1.059,-0.18 1.359,0.268 0.302,0.449 0.183,1.059 -0.268,1.36 -0.45,0.303 -1.059,0.183 -1.359,-0.267 -0.302,-0.449 -0.182,-1.06 0.268,-1.361 l 0,0 z"
               style="opacity:0.5;fill:url(#linearGradient5059)"
               inkscape:connector-curvature="0" />
            <path
               id="path4971"
               d="m 127.859,83.672 c -0.251,0.374 -0.969,0.331 -1.605,-0.096 -0.638,-0.427 -0.95,-1.078 -0.7,-1.451 l 0.001,-0.001 c 0.25,-0.374 0.969,-0.331 1.605,0.097 0.638,0.426 0.95,1.076 0.699,1.451 0,0 0,0 0,0 z"
               style="opacity:0.5;fill:url(#linearGradient5061)"
               inkscape:connector-curvature="0" />
            <path
               id="path4973"
               d="m 130.717,82.673 c -0.569,0.873 -2.036,0.925 -3.276,0.117 -1.239,-0.808 -1.784,-2.17 -1.215,-3.043 0.568,-0.872 2.035,-0.924 3.275,-0.117 1.239,0.809 1.783,2.172 1.216,3.043 l 0,0 z"
               style="opacity:0.75;fill:url(#linearGradient5063)"
               inkscape:connector-curvature="0" />
          </g>
        </g>
      </g>
      <g
         id="g4975">
        <path
           id="path4977"
           d="m 126.063,56.402 c -16.04,0 -21.127,12.091 -21.127,26.528 0,14.437 10.366,22.412 20.864,22.305 8.869,1.347 19.697,-11.337 20.506,-22.236 10e-4,-14.436 -8.743,-26.597 -20.243,-26.597 z m 1.276,33.761 c -3.614,0.398 -13.873,-1.561 -14.253,-2.847 -0.687,-2.32 4.534,-6.921 12.052,-7.844 7.52,-0.922 13.217,0.767 12.711,3.051 -1.222,5.517 -6.846,7.235 -10.51,7.64 z"
           stroke-width="none"
           inkscape:connector-curvature="0"
           style="opacity:1;fill:#f0c7b1" />
        <path
           id="path4979"
           d="m 127.339,90.163 c -3.614,0.398 -13.873,-1.561 -14.253,-2.847 -0.687,-2.32 4.534,-6.921 12.052,-7.844 6.46,-0.792 11.563,0.345 12.556,2.128 -0.898,-6.4 -7.7,-11.397 -15.987,-11.434 -8.911,-0.037 -16.148,5.676 -16.172,12.765 -0.021,7.088 7.185,12.862 16.095,12.902 8.913,0.037 16.149,-5.676 16.173,-12.764 0,-0.105 -0.016,-0.208 -0.019,-0.313 -1.331,5.327 -6.835,7.008 -10.445,7.407 z"
           style="opacity:1;fill:url(#radialGradient5065)"
           inkscape:connector-curvature="0" />
        <path
           id="path4981"
           d="m 137.849,82.523 c 0.506,-2.285 -5.191,-3.973 -12.711,-3.051 -7.518,0.923 -12.738,5.524 -12.052,7.844 0.38,1.286 10.639,3.245 14.253,2.847 3.664,-0.405 9.288,-2.123 10.51,-7.64 z"
           style="opacity:1;fill:url(#radialGradient5067)"
           inkscape:connector-curvature="0" />
        <path
           id="path4983"
           d="m 137.452,77.417 c -4.208,-1.978 -9.35,-2.16 -13.838,-1.005 -2.404,0.561 -4.965,1.285 -7.063,2.638 -1.945,1.135 -3.525,2.5 -5.002,4.19 1.342,-1.701 2.773,-3.118 4.623,-4.27 2.276,-1.416 4.769,-2.294 7.364,-2.916 4.587,-1.126 9.723,-0.87 13.916,1.363 z"
           stroke-width="none"
           inkscape:connector-curvature="0"
           style="opacity:1;fill:#c27b55" />
        <path
           id="path4985"
           d="m 136.832,78.02 c -0.88,-0.352 -4.065,-1 -5.456,-1.066 -1.687,-0.082 -5.073,0.125 -6.735,0.424 -3.374,0.608 -9.251,2.483 -11.678,7.184 -0.746,1.445 -0.074,2.456 0.123,2.675 -0.3,-2.426 4.838,-6.746 12.052,-7.604 7.52,-0.894 13.217,0.743 12.711,2.958 -1.222,5.348 -6.846,7.013 -10.51,7.405 -4.099,0.439 -11.684,-1.539 -12.686,-1.753 1.999,1.009 7.524,2.095 9.767,2.303 0.744,0.07 2.24,0.104 2.986,0.085 5.949,-0.158 10.169,-3.175 11.729,-7.26 1.002,-2.626 -0.094,-4.469 -2.303,-5.351 z"
           stroke-width="none"
           inkscape:connector-curvature="0"
           style="opacity:1;fill:#000000" />
      </g>
    </g>
    <g
       id="g4987"
       transform="matrix(1.0638806,0,0,1.1042158,354.927,41.713647)">
      <path
         id="path4989"
         d="m 141,113.974 c 0.035,22.622 -18.292,40.994 -40.938,41.025 -22.642,0.037 -41.028,-18.273 -41.063,-40.9 -0.035,-22.62 18.292,-41.064 40.937,-41.1 22.643,-0.035 41.031,18.35 41.064,40.975 z"
         style="opacity:1;fill:url(#radialGradient5069)"
         inkscape:connector-curvature="0" />
      <path
         id="path4991"
         d="m 137.5,53.999 c 0,20.711 -16.789,37.5 -37.499,37.5 -20.711,0 -37.501,-16.789 -37.501,-37.5 0,-20.711 16.79,-37.5 37.501,-37.5 20.71,0 37.499,16.789 37.499,37.5 z"
         style="opacity:1;fill:url(#radialGradient5071)"
         inkscape:connector-curvature="0" />
    </g>
    <g
       id="g4993"
       transform="matrix(1.0040327,0,0,1.1042158,358.06829,45.713647)">
      <path
         id="path4995"
         d="m 52.488,73.87 c 7.475,-9.383 20.338,-7.822 30.878,-6.314 2.681,0.384 5.441,0.672 8.07,1.336 1.884,0.475 3.365,2.622 1.851,4.356 C 92.579,74.073 91.034,73.92 90.08,73.9 77.459,73.645 63.193,66.387 52.488,73.87 Z"
         stroke-width="none"
         inkscape:connector-curvature="0"
         style="opacity:1;fill:#2a232b" />
    </g>
    <g
       id="g4997"
       transform="matrix(0.94435001,0,0,1.1042158,372.56697,45.713647)">
      <path
         id="path4999"
         d="m 147.577,73.49 c -2.164,-1.448 -4.454,-2.47 -7.043,-2.889 -9.497,-1.54 -27.586,4.79 -32.341,3.45 -2.912,-0.822 -2.323,-3.739 -1.035,-4.458 0.775,-0.433 0.99,-0.422 7.909,-1.612 11.757,-2.02 24.921,-3.626 32.51,5.509 z"
         stroke-width="none"
         inkscape:connector-curvature="0"
         style="opacity:1;fill:#2a232b" />
    </g>
    <g
       id="g5001"
       transform="matrix(0.90429772,0,0,1.0465434,370.84376,53.925354)">
      <path
         id="path5003"
         d="m 96.831,88.524 c 0,0 -1.399,11.117 -2.026,13.281 -1.379,4.752 -6.168,11.417 -5.239,14.429 1.859,6.022 7.537,4.493 10.524,4.471 2.763,-0.022 8.072,1.552 9.162,-2.37 0.352,-1.266 -0.441,-4.466 -0.441,-4.466 0,0 -2.644,3.112 -8.875,2.767 -1.778,-0.099 -4.671,-2.096 -4.704,-4.912 -0.043,-3.817 1.802,-7.035 2.205,-10.824 0.304,-2.878 -0.606,-12.376 -0.606,-12.376 z"
         stroke-width="none"
         inkscape:connector-curvature="0"
         style="opacity:1;fill:#e1ac8f" />
      <path
         id="path5005"
         d="m 105.194,118.969 c 1.075,0 1.366,0.326 1.366,0.729 0,0.404 -0.335,1.026 -1.366,0.73 -1.134,-0.323 -3.113,-0.175 -3.113,-0.175 0,0 2.036,-1.284 3.113,-1.284 z m -10.272,0 c -1.077,0.001 -1.366,0.328 -1.366,0.733 -10e-4,0.403 0.323,0.983 1.366,0.729 1.15,-0.282 3.112,-0.175 3.112,-0.175 0,0 -2.035,-1.283 -3.112,-1.287 z m 13.888,-5.1 c 0,0 1.489,1.933 1.18,3.975 -0.301,1.983 -3.31,2.861 -3.31,2.861 0,0 2.089,-1.516 2.342,-3.356 0.118,-0.863 -0.212,-3.48 -0.212,-3.48 z m -18.383,-1.986 c 0,0 -1.086,2.704 -0.772,4.352 0.571,2.976 3.704,4.164 3.704,4.164 0,0 -1.955,-2.039 -2.65,-3.842 -0.761,-1.97 -0.282,-4.674 -0.282,-4.674 z"
         stroke-width="none"
         inkscape:connector-curvature="0"
         style="opacity:1;fill:#c27b55" />
      <path
         id="path5007"
         d="m 105.141,115.311 c 1.043,-0.889 1.148,-1.396 0.932,-1.729 -0.215,-0.334 -0.841,-0.545 -1.714,0.528 -0.963,1.18 -3.056,2.054 -3.056,2.054 0,0 2.795,0.034 3.838,-0.853 z"
         stroke-width="none"
         inkscape:connector-curvature="0"
         style="opacity:1;fill:#ffe4d6" />
    </g>
    <g
       id="g5009"
       transform="matrix(1.0638806,0,0,1.1042158,354.92699,41.713645)">
      <g
         id="g5011">
        <path
           id="path5013"
           d="m 100,18.13 0,0 0,0 0,0 z"
           stroke-width="none"
           inkscape:connector-curvature="0"
           style="opacity:1;fill:#2a232b" />
      </g>
    </g>
    <g
       id="g5015"
       transform="matrix(1.0638806,0,0,1.1042158,354.927,41.713647)">
      <path
         id="path5017"
         d="m 100,18.13 0,0 0,0 0,0 z"
         stroke-width="none"
         inkscape:connector-curvature="0"
         style="opacity:1;fill:#2a232b" />
    </g>
    <g
       id="g5019"
       transform="matrix(1.1066243,0,0,1.1151854,351.89213,40.619438)">
      <path
         id="path5021"
         d="m 150.81,99.442 c -0.208,0 -0.427,-0.01 -0.651,-0.029 -1.972,-6.396 0.331,-15.486 4.25,-20.951 -2.674,-7.41 2.494,-3.557 1.635,-12.393 -0.155,-1.27 0.052,-2.412 0.479,-3.584 -1.269,-3.313 -1.619,-7.189 -1.198,-9.319 -3.629,-9.571 -4.898,-3.055 -6.83,-14.894 -2.96,-1.071 -8.371,-5.169 -10.667,-6.959 -5.957,-4.648 -14.879,9.828 -22.333,4.959 -4.442,4.032 -12.805,3.311 -15.521,2.409 -3.829,1.928 -11.513,0.935 -15.506,-2.411 -6.414,4.608 -9.373,-6.881 -20.2,-6.579 -6.807,4.91 -4.954,5.704 -12.766,8.582 -0.698,4.549 -0.054,5.279 -3.703,9.208 -2.154,2.286 -2.162,3.08 -3.032,5.394 l -0.156,0 0.053,0.271 -0.038,0.099 0.071,0.074 c 0.474,2.586 -0.39,6.584 -1.227,9.184 1.617,4.484 -1.381,5.75 1.942,10.274 1.073,1.461 1.47,2.024 0.169,5.686 4.717,6.58 6.05,16.876 4.265,20.953 -7.124,0.687 -6.721,-9.202 -7.304,-12.656 -1.365,-9.695 -11.698,-2.623 -9.94,-11.778 -2.641,-2.091 -1.968,-4.754 -1.073,-8.9 -2.452,-5.161 -7.248,-23.656 0.681,-28.05 -0.558,-6.983 2.841,-13.939 8.591,-16.91 0.856,-6.626 9.141,-16.875 15.649,-15.523 1.494,-7.913 15.707,-17.864 21.96,-13.427 4.878,-4.65 15.003,-6.226 21.571,-4.299 7.221,-1.883 16.184,-0.474 21.605,4.291 6.435,-4.408 20.349,5.649 21.952,13.405 7.113,-0.673 14.411,8.336 15.669,15.567 5.934,3.057 9.076,10.023 8.574,16.897 7.476,4.135 3.791,20.938 0.694,28.041 0.689,3.6 1.757,6.655 -1.079,8.909 1.897,9.601 -8.953,0.934 -10.171,13.722 -0.387,4.016 -1.027,10.737 -6.415,10.737 l 0,0 z"
         stroke-width="none"
         inkscape:connector-curvature="0"
         style="opacity:1;fill:#2a232b" />
      <path
         id="path5023"
         d="m 160.293,77.838 c -0.832,0.07 -1.664,-1.301 -2.496,-1.301 0,-5.101 3.042,-8.163 6.084,-11.223 -1.014,0 -2.027,-2.041 -3.042,-1.021 -3.042,-5.102 2.028,-10.203 4.057,-14.285 -6.085,1.021 -11.154,-6.121 -7.099,-11.223 0.704,0 1.408,-0.982 2.112,-1.242 -3.592,-0.822 -6.327,-1.118 -8.196,-4.88 -1.014,-3.061 0,-6.122 2.028,-9.182 -6.084,4.082 -14.196,2.041 -18.251,-4.081 0,-1.021 0,-3.062 0,-4.082 -2.029,5.102 -7.099,9.182 -13.183,7.142 -1.646,0 -4.63,-1.345 -5.694,-4.037 0.181,2.555 -0.609,5.058 -1.404,5.058 C 109.125,26.541 101.014,22.46 100,15.318 100,19.4 97.972,24.5 95.944,25.521 90.874,28.582 84.79,22.459 86.818,15.318 84.79,22.46 78.706,25.521 72.622,23.481 69.58,22.46 65.524,20.42 65.524,15.318 62.482,22.46 54.37,29.602 49.3,20.42 c 3.042,8.162 -2.577,17.345 -8.244,17.345 4.015,5.491 1.147,17.345 -5.951,17.345 8.111,2.041 4.056,11.223 5.069,17.345 -0.905,0 -1.811,1.623 -2.717,1.243 8.477,5.359 10.408,15.83 12.063,25.733 0.107,-0.005 0.211,-0.006 0.323,-0.016 1.785,-4.077 0.452,-14.374 -4.265,-20.953 1.301,-3.662 0.904,-4.225 -0.169,-5.686 -3.323,-4.524 -0.325,-5.79 -1.942,-10.274 0.837,-2.599 1.701,-6.598 1.227,-9.184 l -0.071,-0.074 0.038,-0.099 -0.053,-0.271 0.156,0 c 0.87,-2.314 0.878,-3.108 3.032,-5.394 3.649,-3.93 3.005,-4.66 3.703,-9.208 7.813,-2.878 5.959,-3.672 12.766,-8.582 10.827,-0.302 13.786,11.187 20.2,6.579 3.993,3.346 11.677,4.338 15.506,2.411 2.717,0.902 11.079,1.623 15.521,-2.409 7.454,4.869 16.376,-9.607 22.333,-4.959 2.296,1.79 7.707,5.888 10.667,6.959 1.932,11.839 3.201,5.323 6.83,14.894 -0.421,2.13 -0.07,6.007 1.198,9.319 -0.427,1.172 -0.634,2.314 -0.479,3.584 0.859,8.836 -4.309,4.983 -1.635,12.393 -3.695,5.154 -5.95,13.526 -4.543,19.829 -1.003,-8.092 2.886,-16.751 10.43,-20.452 z"
         stroke-width="none"
         inkscape:connector-curvature="0"
         style="opacity:1;fill:#1b141c" />
      <path
         id="path5025"
         d="m 132.061,10.84 c 1.719,-1.024 8.918,-0.546 10.395,-5.612 0.377,5.998 -6.144,6.367 -10.395,5.612 z m 16.351,-0.765 c 2.97,0.951 4.813,6.225 5.07,7.524 0.781,-3.446 -1.442,-7.924 -5.07,-7.524 z m 1.141,6.632 c 1.437,1.297 0.971,5.101 0.507,6.122 1.629,-1.533 1.849,-5.221 -0.507,-6.122 z m -2.155,1.275 c 0.111,2.74 -0.195,4.648 -1.648,6.632 2.648,-1.317 2.691,-3.866 1.648,-6.632 z m 7.985,5.357 c 0.788,-0.513 5.585,-0.415 6.084,0.766 0.022,-2.275 -4.852,-2.265 -6.084,-0.766 z m -1.901,4.719 c 4.019,-0.083 3.455,-1.2 7.604,-0.893 -2.88,-1.926 -5.357,-0.036 -7.604,0.893 z m 5.324,1.658 c -0.858,1.02 -2.829,1.62 -2.915,4.208 1.22,-2.299 1.931,-2.205 2.915,-4.208 z m 4.055,6.377 c 3.256,1.638 4.257,3.755 5.07,7.27 0.902,-4.007 -0.867,-7.074 -5.07,-7.27 z m 1.268,4.591 c 1.822,1.815 1.932,5.626 0.887,8.035 2.408,-1.985 2.487,-6.622 -0.887,-8.035 z m -1.522,2.934 c -0.374,1.859 -1.179,2.688 -2.154,4.846 1.561,-1.19 2.472,-2.779 2.154,-4.846 z m 1.014,11.988 0,0 c 1.053,3.215 1.918,4.353 0.635,6.505 2.598,-1.624 1.339,-4.169 -0.635,-6.505 z m -1.52,1.149 c -0.05,1.904 -0.276,3.379 -1.394,5.739 1.564,-1.123 2.319,-3.083 1.394,-5.739 z M 127.752,13.263 c 0.51,2.492 4.538,3.179 4.538,3.179 1.04,0.244 2.542,0.184 3.447,-0.5 -1.09,0.185 -6.957,-1.313 -7.985,-2.679 z M 122.809,8.8 c 1.536,-2.926 4.926,-4.827 8.111,-5.357 -4.21,-1.147 -7.659,1.438 -8.111,5.357 z M 120.4,-3.827 c 1.942,1.783 1.96,4.773 2.027,8.672 1.548,-2.851 1.475,-7.29 -2.027,-8.672 z m 1.014,-1.658 c 1.539,0.299 3.979,4.701 4.184,5.74 0.572,-2.58 -1.994,-6.171 -4.184,-5.74 z m -2.535,3.699 c 0.318,3.139 0.03,5.48 -1.646,8.162 3.036,-1.817 3.288,-5.014 1.646,-8.162 z m -3.168,9.438 c -5.082,0.921 -7.161,7.895 -5.45,12.499 0.221,-2.023 1.907,-9.963 5.45,-12.499 z m -5.07,-3.827 c -9.45,3.409 -8.715,14.028 -5.07,16.453 -0.876,-1.39 -2.49,-10.023 5.07,-16.453 z M 99.614,4.081 c -5.041,7.576 0.793,12.744 2.918,16.666 C 101.128,15.722 97.8,10.264 99.614,4.081 Z m 7.859,-6.887 c -1.478,0.201 -5.937,-0.941 -6.338,2.55 1.609,-2.43 4.224,-1.042 6.338,-2.55 z m 3.295,-1.658 c -4.262,-4.366 -5.752,-2.456 -6.465,-1.914 2.593,-0.792 3.709,0.511 6.465,1.914 z m -2.155,-5.357 c 3.063,0.032 5.401,2.261 6.211,5.229 0.781,-3.495 -2.508,-6.886 -6.211,-5.229 z m -30.42,9.182 C 81.896,-3.932 86.174,-7.268 90.614,-5.741 86.39,-9.9 80.756,-5.989 78.193,-0.639 Z m 4.944,0.511 C 75.872,6.22 81.949,12.035 84.278,11.733 83.263,11.249 79.169,7.446 83.137,-0.128 Z m 2.154,4.463 c 1.063,0.854 1.756,1.699 2.028,4.846 0.847,-2.108 0.352,-4.121 -2.028,-4.846 z m 7.605,-4.974 c 0.103,0.381 1.558,5.335 1.167,5.335 -0.128,1.343 -0.398,1.915 -1.04,3.083 4.58,-2.499 0.498,-7.389 -0.127,-8.418 z m -0.633,-3.06 c 4.813,-0.473 4.962,5.761 4.689,7.524 2.821,-4.222 -0.025,-10.34 -4.689,-7.524 z m -12.042,17.6 c 2.226,0.595 0.982,3.246 1.268,7.015 1.245,-2.898 1.808,-7.308 -1.268,-7.015 z M 75.166,9.612 C 73.108,1.274 66.533,2.678 66.533,2.678 c 1.32,-0.367 6.271,3.712 7.03,9.422 0.219,1.134 0.444,3.079 0.701,4.607 0.32,-1.02 1.575,-4.717 0.902,-7.095 z m -6.859,-1.45 c 2.32,1.8 0.981,7.046 0,9.821 2.995,-2.976 3.86,-8.676 0,-9.821 z m -3.802,1.275 c 1.449,1.902 -1.703,5.647 -3.676,8.163 3.2,-1.317 6.775,-6.011 3.676,-8.163 z M 69.194,-6.25 c -2.841,-0.465 -5.571,3.311 -4.816,6.122 0.353,-1.704 2.798,-5.544 4.816,-6.122 z M 67.8,-2.551 c -2.279,0.454 -2.191,3.93 -1.141,5.356 -0.121,-1.02 -0.155,-4.887 1.141,-5.356 z M 53.351,11.478 c -4.011,-1.786 -7.875,-0.083 -8.492,3.955 2.068,-2.796 5.058,-3.89 8.492,-3.955 z m -2.282,3.571 c -2.755,-1.719 -6.26,1.727 -5.577,4.847 0.427,-2.191 3.308,-5.098 5.577,-4.847 z m -1.647,3.316 c -3.4,0.307 -3.967,5.263 -1.901,6.887 -0.783,-1.71 -0.105,-5.939 1.901,-6.887 z m -8.492,5.357 c 2.196,1.012 4.552,2.976 4.277,2.976 0.792,1.14 0.959,1.559 1.299,2.891 0.88,-3.844 -1.688,-5.359 -5.576,-5.867 z m 1.774,4.464 c 1.926,1.488 3.417,4.226 2.155,7.015 2.623,-2.125 1.504,-5.827 -2.155,-7.015 z m -2.219,1.182 c -0.172,-0.171 -0.323,-0.155 -0.317,-0.162 0.555,0.076 0.272,3.473 -1.024,4.476 -0.413,0.455 -1.79,1.805 -2.271,2.284 5.485,-1.876 4.627,-5.608 3.612,-6.598 z m -2.217,9.403 c 1.558,1.928 1.78,4.979 1.446,5.314 -0.309,2.233 -0.127,1.246 -0.558,3.614 2.164,-2.491 3.012,-6.552 -0.888,-8.928 z m -1.901,3.699 c 1.185,0.987 0.939,5.241 -0.761,6.122 2.891,-0.204 3.12,-5.356 0.761,-6.122 z m -3.676,0.51 c 1.353,1.627 0.405,2.484 -3.802,7.27 4.43,-2.044 6.855,-5.79 3.802,-7.27 z m 0,12.117 c 2.448,1.836 0.636,6.208 -0.381,7.269 3.221,-1.52 3.813,-6.438 0.381,-7.269 z m 4.056,4.081 c 1.534,0.44 -0.776,4.06 -1.648,5.101 2.712,-1.394 4.098,-5.184 1.648,-5.101 z M 79.428,17.256 c 0.258,2.781 -2.367,5.437 -2.882,5.956 3.608,-1.094 3.57,-4.449 2.882,-5.956 z m 41.465,0.878 c 0,0 -1.006,-1.314 -1.76,-2.405 0.485,2.857 2.174,5.255 5.07,5.782 -0.398,-0.297 -3.31,-2.971 -3.31,-3.377 z m 0.944,-3.085 c 0.377,2.068 1.907,3.618 4.057,3.742 -1.311,-0.753 -2.62,-1.813 -4.057,-3.742 z m 44.616,53.737 c -0.839,1.81 -2.587,2.872 -3.719,4.761 3.35,-1.999 3.549,-3.136 3.719,-4.761 z m -1.015,5.101 c -1.014,0.524 -2.677,1.033 -4.395,3.062 2.52,-0.931 3.382,-2.135 4.395,-3.062 z M 32.944,68.105 c 0.782,1.301 1.849,2.354 3.042,3.062 -0.751,-1.276 -1.8,-2.304 -3.042,-3.062 z m 0.339,3.741 c 1.256,4.162 3.379,3.742 3.379,3.742 -1.133,-0.635 -2.996,-2.982 -3.379,-3.742 z"
         stroke-width="none"
         inkscape:connector-curvature="0"
         style="opacity:1;fill:#3a353a" />
      <path
         id="path5027"
         d="m 168.08,37.856 c 0.439,-6.042 -2.227,-13.634 -8.619,-16.927 -1.242,-7.001 -8.668,-16.365 -15.699,-15.692 -1.551,-7.575 -15.768,-17.858 -22.165,-13.458 -4.675,-4.112 -13.479,-6.324 -21.624,-4.224 C 93.038,-14.457 82.881,-12.518 78.37,-8.221 72.206,-12.603 57.652,-2.455 56.203,5.237 49.932,3.945 41.37,14.301 40.515,20.92 c -5.429,2.796 -9.194,9.783 -8.627,16.937 -8.059,4.451 -2.987,23.388 -0.684,28.263 -0.237,1.117 -0.891,3.905 -0.762,5.112 0.011,0.459 0.029,0.765 0.039,0.765 0.294,1.02 0.365,1.988 1.783,3.111 -1.767,9.213 8.648,2.297 9.976,11.704 0.668,3.964 0.144,8.049 2.901,11.152 1.391,1.519 3.904,1.903 4.894,1.734 1.933,-4.083 0.56,-14.696 -4.132,-21.285 1.653,-4.674 0.4,-4.524 -1.217,-7.224 -1.506,-2.513 0.361,-5.153 -0.911,-8.692 1.407,-4.349 1.496,-7.771 1.189,-9.316 0.01,0 0.01,0 0,-0.01 0.94,-2.462 0.88,-3.187 3.04,-5.479 3.719,-4.005 3.097,-4.882 3.755,-9.192 7.218,-1.782 5.407,-3.808 12.522,-7.778 5.82,-3.248 13.681,10.589 20.163,5.931 1.431,1.197 2.509,1.708 4.121,2.347 0.724,0.221 0.59,0.26 1.822,0.469 0.268,0.031 6.23,0.379 6.23,0.102 0.588,-0.06 2.819,-0.285 3.368,-0.561 0.933,0.311 2.433,0.465 3.369,0.561 0,0.01 1.622,0.112 3.229,0.112 3.639,0.142 6.949,-1.239 8.932,-3.03 7.635,4.975 16.719,-9.591 23.073,-4.03 5.963,5.219 7.936,5.26 9.635,5.877 0.054,0.33 0.259,2.477 0.386,3.296 1.094,5.448 3.712,4.289 6.398,11.396 -0.203,1.022 -0.461,4.964 1.189,9.296 -0.367,1.02 -0.627,2.225 -0.458,3.611 0.842,8.636 -4.333,4.96 -1.673,12.314 -3.565,4.975 -6.371,14.319 -4.149,21.243 0.01,0.011 0.01,0.031 0.018,0.042 7.612,0.869 7.239,-9.595 7.795,-12.887 1.317,-9.33 11.76,-2.561 9.985,-11.704 1.439,-1.147 1.508,-2.091 1.772,-3.111 0.011,0 0.032,-0.306 0.042,-0.755 0.135,-1.285 -0.561,-4.111 -0.755,-5.132 1.117,-2.565 8.197,-23.346 -0.693,-28.253 z m 0.582,26.784 c -0.066,0.372 -0.266,1.149 -0.483,1.745 0.075,0.439 1.065,5.52 0.634,5.52 -0.313,1.021 -0.106,1.572 -1.517,2.918 1.396,8.56 -9.47,1.01 -11.043,11.715 -0.932,5.7 0.069,11.547 -5.895,12.517 -1.192,-5.739 1.433,-15.507 4.29,-20.477 -2.27,-6.842 2.923,-3.58 2.049,-12.57 -0.159,-1.346 -0.021,-2.284 0.269,-3.306 -0.739,-2.165 -1.521,-6.084 -1.238,-8.764 -2.384,-8.027 -0.61,-3.267 -4.884,-9.112 -0.018,-0.031 -0.449,-0.785 -0.465,-0.816 l -0.01,-0.011 c -1.057,-2.263 -0.765,-3.4 -1.357,-5.897 -0.002,0 -5.551,-2.566 -10.486,-6.758 -6.139,-5.211 -15.494,8.794 -23.229,4.809 -3.995,3.086 -11.915,2.875 -15.313,2 -1.901,0.436 -7.221,0.795 -10.4,0.143 -0.081,-0.017 -1.438,-0.418 -1.506,-0.439 -1.102,-0.336 -2.462,-1.079 -3.427,-1.704 -6.963,4.059 -14.429,-11.927 -21.948,-5.806 -4.398,3.581 -6.598,6.223 -11.739,7.755 -0.396,1.02 -0.226,3.548 -1.367,5.897 l 0,0.011 c 0,0 -0.219,0.767 -2.307,2.969 -2.607,2.836 -2.287,4.612 -3.051,6.968 0.282,2.692 -0.469,6.161 -1.229,8.765 1.031,3.708 -1.207,6.535 1.436,9.886 2.151,2.793 1.439,3.041 0.883,5.989 2.547,4.477 5.584,14.194 4.279,20.478 -10.286,-1.63 -0.016,-17.209 -12.887,-19.346 -1.931,-0.3 -3.292,-0.333 -3.823,-1.836 -0.31,-0.895 -0.318,-2.528 -0.229,-3.062 -1.387,-1.429 -1.216,-1.897 -1.504,-2.918 -0.504,0 0.623,-5.02 0.623,-5.509 -0.374,-1.021 -7.082,-23.671 0.742,-28.518 0,-7.009 3.865,-13.862 8.411,-16.672 0.049,-0.204 0.107,-0.408 0.168,-0.623 0,-0.01 0.009,-0.02 0.009,-0.03 1.941,-6.005 9.653,-15.581 15.699,-14.774 1.413,-6.243 15.997,-17.535 21.86,-13.54 6.708,-4.132 14.734,-5.069 21.296,-3.713 8.431,-1.547 16.608,0.454 21.314,3.713 5.643,-3.844 19.766,6.539 21.861,13.54 6.383,-0.851 14.061,9.505 15.708,14.794 l 0,0.01 c 0.06,0.215 0.121,0.419 0.179,0.623 5.865,4.039 7.521,9 8.379,16.295 0,0.117 0.021,0.191 0.021,0.367 6.645,4.464 3.069,17.141 1.227,26.774 z"
         stroke-width="none"
         inkscape:connector-curvature="0"
         style="opacity:1;fill:#000000" />
    </g>
    <g
       id="g5029"
       transform="matrix(1.0638806,0,0,1.1042158,354.927,41.713647)">
      <path
         id="path5031"
         d="m 100,18.13 0,0 0,0 0,0 z"
         stroke-width="none"
         inkscape:connector-curvature="0"
         style="opacity:1;fill:#26120b" />
    </g>
  </g>
</svg>
